<?xml version="1.0" encoding="utf-8"?>
<!-- Generator: Adobe Illustrator 27.5.0, SVG Export Plug-In . SVG Version: 6.00 Build 0)  -->
<svg version="1.1" xmlns="http://www.w3.org/2000/svg" xmlns:xlink="http://www.w3.org/1999/xlink" x="0px" y="0px"
	 viewBox="0 0 3710 3710" style="enable-background:new 0 0 3710 3710;" xml:space="preserve">
<g id="Illustration">
	<g>
		<linearGradient id="SVGID_1_" gradientUnits="userSpaceOnUse" x1="3582.2959" y1="4048.6575" x2="1123.3691" y2="994.8246">
			<stop  offset="0" style="stop-color:#B37CFF"/>
			<stop  offset="1" style="stop-color:#F895E7"/>
		</linearGradient>
		<path style="opacity:0.3;fill:url(#SVGID_1_);" d="M2908.104,2842.762c-56.605,59.375-110.164,97.665-152.481,127.916
			c-497.418,355.604-1085.997,251.947-1211.086,226.633c-184.718-37.38-541.774-109.636-799.918-412.104
			c-390.552-457.608-329.737-1178.557-26.799-1654.465c55.412-87.052,348.115-570.209,943.033-647.692
			c360.038-46.892,779.726,47.684,1083.653,301.387C3382.475,1316.982,3337.058,2392.817,2908.104,2842.762z"/>
		<g>
			
				<linearGradient id="SVGID_00000075864048306850713570000004486641003640316337_" gradientUnits="userSpaceOnUse" x1="1397.7913" y1="2585.4885" x2="592.6794" y2="-134.3022">
				<stop  offset="0" style="stop-color:#A737D5"/>
				<stop  offset="1" style="stop-color:#EF497A"/>
			</linearGradient>
			<path style="fill:url(#SVGID_00000075864048306850713570000004486641003640316337_);" d="M652.356,471.775
				c-5.064-11.874,13.161-21.632,26.332-14.169c133.747,75.775,462.737,308.863,457.885,766.269
				c-6.088,573.884,180.036,767.025,392.096,876.329c0,0-274.203-36.334-472.502-231.502
				C569.296,1389.519,742.4,682.901,652.356,471.775z"/>
			<path style="fill:#FFFFFF;" d="M770.777,640.632c24.547,61.709,47.48,123.753,67.393,186.346
				c20.342,62.502,38.182,125.444,53.413,188.718c14.91,63.313,28.255,126.828,38.028,190.68
				c10.15,63.815,16.681,127.89,22.942,192.24c6.73,64.286,13.029,129.077,28.079,193.576
				c14.941,64.373,40.237,128.426,80.189,187.069c9.98,14.613,20.35,29.145,31.744,43.068c11.059,14.09,22.942,27.811,35.143,41.364
				c24.586,27.022,51.575,52.85,80.964,77.039c58.949,48.272,127.529,89.687,201.294,123.381c7.764,3.546,17.841,1.639,22.51-4.259
				c4.584-5.791,2.246-13.278-5.191-16.904l-0.053-0.026c-17.636-8.581-35.121-17.304-52.034-26.59
				c-8.556-4.541-16.828-9.361-25.217-14.06c-8.144-4.935-16.543-9.631-24.478-14.752c-32.185-20.07-62.476-41.834-90.498-65.19
				c-56.286-46.453-103.724-99.537-142.021-155.508c-18.738-28.159-34.713-57.317-47.678-87.308
				c-12.936-30.002-22.859-60.805-30.474-92.062c-15.244-62.548-22.176-126.638-29.514-190.883
				c-7.449-64.253-15.517-128.781-27.066-192.957c-5.66-32.095-12.079-64.11-19.249-96.021c-3.464-15.97-7.334-31.887-11.167-47.806
				c-4.033-15.892-8.182-31.764-12.499-47.608c-17.426-63.353-37.389-126.271-59.939-188.622
				c-22.944-62.268-48.056-124.054-76.258-185c-0.807-1.743-3.318-2.658-5.611-2.045
				C771.303,637.106,770.105,638.932,770.777,640.632z"/>
		</g>
		<g>
			<g>
				
					<linearGradient id="SVGID_00000126303397150294174030000010349401103159952818_" gradientUnits="userSpaceOnUse" x1="974.0817" y1="1095.5901" x2="612.6865" y2="2266.7803">
					<stop  offset="0" style="stop-color:#A737D5"/>
					<stop  offset="1" style="stop-color:#EF497A"/>
				</linearGradient>
				<path style="fill:url(#SVGID_00000126303397150294174030000010349401103159952818_);" d="M1104.524,2374.088
					c-3.989,22.65-29.814,33.865-49.25,21.57c-107.245-67.837-393.119-287.057-444.874-722.063
					c-43.704-367.343-102.311-562.378-135.052-649.073c-6.923-18.333,13.581-34.848,30.038-24.21
					C686.96,1117.676,1249.074,1553.362,1104.524,2374.088z"/>
				<path style="fill:#FFFFFF;" d="M1073.881,2379.632c-0.414,0.392-0.87,0.749-1.37,1.066c-4.185,2.66-9.734,1.423-12.394-2.761
					c-3.015-4.745-302.479-480.272-386.32-988.292c-0.805-4.889,2.505-9.51,7.398-10.323c4.894-0.806,9.513,2.505,10.323,7.399
					c83.229,504.323,380.759,976.871,383.754,981.584C1077.616,2371.991,1076.937,2376.735,1073.881,2379.632z"/>
			</g>
		</g>
		<g>
			<g>
				
					<linearGradient id="SVGID_00000036954121250742096580000017252830535228026534_" gradientUnits="userSpaceOnUse" x1="1062.3203" y1="351.9" x2="965.0273" y2="967.4976">
					<stop  offset="0" style="stop-color:#53D8FF"/>
					<stop  offset="1" style="stop-color:#3840F7"/>
				</linearGradient>
				<path style="fill:url(#SVGID_00000036954121250742096580000017252830535228026534_);" d="M1205.696,688.004
					c0,0-332.903,67.824-384.137,0.411c0,0-24.063-145.797,96.971-137.725C1039.564,558.763,1205.696,688.004,1205.696,688.004z"/>
				
					<linearGradient id="SVGID_00000143589681780337661860000005702971283838861705_" gradientUnits="userSpaceOnUse" x1="1698.6991" y1="49.6456" x2="1453.8785" y2="3431.2183">
					<stop  offset="0" style="stop-color:#53D8FF"/>
					<stop  offset="1" style="stop-color:#3840F7"/>
				</linearGradient>
				<path style="fill:url(#SVGID_00000143589681780337661860000005702971283838861705_);" d="M2460.502,827.269
					c-34.674,389.684-68.799,1211.349-100.495,1613.009c-7.065,89.529-78.825,160.245-168.449,165.998
					c-289.959,18.612-982.382,56.384-1313.581,35.443c-7.688-0.486-7.561-11.841,0.134-12.185l0,0
					c63.16-31.137,102.933-95.67,102.361-166.086l-14.64-1802.066c-0.517-63.676-47.497-99.68-107.126-77.336
					c-37.566,14.076-17.637,53.48-37.148,99.062c-1.769-86.679,2.151-150.523,96.971-132.418c0,0,865.051,5.691,1315.113,33.588
					C2355.934,591.858,2471.361,705.225,2460.502,827.269z"/>
				<defs>
					<filter id="Adobe_OpacityMaskFilter" filterUnits="userSpaceOnUse" x="965.13" y="591.474" width="1460.645" height="2026.13">
						<feFlood  style="flood-color:white;flood-opacity:1" result="back"/>
						<feBlend  in="SourceGraphic" in2="back" mode="normal"/>
					</filter>
				</defs>
				
					<mask maskUnits="userSpaceOnUse" x="965.13" y="591.474" width="1460.645" height="2026.13" id="SVGID_00000133506494260008332280000011628465395327799719_">
					<g style="filter:url(#Adobe_OpacityMaskFilter);">
						<defs>
							
								<filter id="Adobe_OpacityMaskFilter_00000119076842377086187460000008612358823549905589_" filterUnits="userSpaceOnUse" x="965.13" y="591.474" width="1460.645" height="2026.13">
								<feFlood  style="flood-color:white;flood-opacity:1" result="back"/>
								<feBlend  in="SourceGraphic" in2="back" mode="normal"/>
							</filter>
						</defs>
						
							<mask maskUnits="userSpaceOnUse" x="965.13" y="591.474" width="1460.645" height="2026.13" id="SVGID_00000133506494260008332280000011628465395327799719_">
							<g style="filter:url(#Adobe_OpacityMaskFilter_00000119076842377086187460000008612358823549905589_);">
							</g>
						</mask>
						
							<linearGradient id="SVGID_00000183961140657061926490000017703091297823390636_" gradientUnits="userSpaceOnUse" x1="730.2667" y1="978.7278" x2="-1188.5659" y2="3434.2444" gradientTransform="matrix(-1 0 0 1 1874.7875 0)">
							<stop  offset="0" style="stop-color:#FFFFFF"/>
							<stop  offset="1" style="stop-color:#000000"/>
						</linearGradient>
						
							<path style="mask:url(#SVGID_00000133506494260008332280000011628465395327799719_);fill:url(#SVGID_00000183961140657061926490000017703091297823390636_);" d="
							M2196.979,626.015l-1173.285-34.541c51.396,380.498,29.705,1155.351,10.094,1918.989
							c-1.163,45.271-27.713,86.016-68.658,105.365l0,0c0,0,831.156,9.577,1188.282-15.753
							c84.089-5.964,152.684-69.592,165.177-152.96c49.028-327.173,94.021-1206.371,107.134-1650.964
							C2428.749,693.573,2299.525,629.963,2196.979,626.015z"/>
					</g>
				</mask>
				
					<linearGradient id="SVGID_00000085948286461088790080000001449271852902710415_" gradientUnits="userSpaceOnUse" x1="730.2667" y1="978.7278" x2="-1188.5659" y2="3434.2444" gradientTransform="matrix(-1 0 0 1 1874.7875 0)">
					<stop  offset="0" style="stop-color:#FFFFFF"/>
					<stop  offset="1" style="stop-color:#FFFFFF"/>
				</linearGradient>
				<path style="opacity:0.53;fill:url(#SVGID_00000085948286461088790080000001449271852902710415_);" d="M2196.979,626.015
					l-1173.285-34.541c51.396,380.498,29.705,1155.351,10.094,1918.989c-1.163,45.271-27.713,86.016-68.658,105.365l0,0
					c0,0,831.156,9.577,1188.282-15.753c84.089-5.964,152.684-69.592,165.177-152.96
					c49.028-327.173,94.021-1206.371,107.134-1650.964C2428.749,693.573,2299.525,629.963,2196.979,626.015z"/>
			</g>
			<g>
				<path style="fill:#FFFFFF;" d="M1116.784,1377.162h436.913l59.479-99.777c1.662-2.789,0.989-6.553-1.505-8.413
					c-2.495-1.868-5.862-1.106-7.523,1.682l-56.257,94.373h-431.107c-2.997,0-5.425,2.718-5.425,6.067
					S1113.787,1377.162,1116.784,1377.162z"/>
				<path style="fill:#FFFFFF;" d="M1116.784,1348.849h217.005c2.997,0,5.425-2.718,5.425-6.067c0-3.349-2.428-6.067-5.425-6.067
					h-217.005c-2.997,0-5.425,2.718-5.425,6.067C1111.359,1346.131,1113.787,1348.849,1116.784,1348.849z"/>
				<g>
					<g>
						<path style="fill:#FFFFFF;" d="M1535.575,1094.737c-0.082,0-0.163,0-0.247,0l-364.241-2.147
							c-29.487-0.173-53.325-23.297-54.267-52.645l-3.851-119.779l10.032-0.32l3.851,119.779
							c0.77,23.93,20.226,42.786,44.294,42.926l364.243,2.147c0.062,0,0.124,0,0.186,0c15.151,0,28.21-11.189,30.42-26.104
							c4.853-32.727,10.15-82.503,7.831-133.782l10.029-0.451c2.354,52.076-3.013,102.541-7.929,135.703
							C1572.99,1079.872,1555.666,1094.737,1535.575,1094.737z"/>
						<path style="fill:#FFFFFF;" d="M1223.692,773.634l1.096-11.731c1.237-2.801,3.805-4.783,6.84-5.266
							c11.348-1.806,39.491-4.982,53.042,5.145l2.024,13.632L1223.692,773.634z"/>
						<path style="fill:#FFFFFF;" d="M1259.14,762.409c-2.613,0.553-5.23,0.551-7.852-0.008c-3.172-0.677-5.411-3.14-5.411-5.962
							l0-31.876h18.693l0,31.852C1264.572,759.25,1262.329,761.735,1259.14,762.409z"/>
						<path style="fill:#FFFFFF;" d="M1404.752,773.634l1.096-11.731c1.237-2.801,3.805-4.783,6.84-5.266
							c11.348-1.806,39.491-4.982,53.042,5.145l2.025,13.632L1404.752,773.634z"/>
						<path style="fill:#FFFFFF;" d="M1440.2,762.409c-2.613,0.553-5.23,0.551-7.852-0.008c-3.173-0.677-5.411-3.14-5.411-5.962
							l0-35.234h18.693l0,35.21C1445.631,759.25,1443.389,761.735,1440.2,762.409z"/>
						<path style="fill:#FFFFFF;" d="M1243.69,732.762c-6.336,0-11.905-4.346-13.338-10.487c-1.637-7.006-1.472-14.656,0.492-22.741
							c1.794-7.372,7.076-13.441,14.133-16.231c53.294-21.084,148.927-21.205,187.564-20.303
							c13.826,0.33,25.316,10.385,27.323,23.911c1.552,10.47,0.505,20.506-0.646,27.084c-1.188,6.787-7.093,11.875-14.039,12.104
							l-201.037,6.656C1243.993,732.762,1243.84,732.762,1243.69,732.762z M1408.432,672.758
							c-45.011,0-116.979,2.954-159.761,19.878c-4.029,1.595-7.047,5.062-8.072,9.271c-1.093,4.497-2.062,11.284-0.471,18.084
							c0.384,1.637,1.944,2.712,3.685,2.732l201.036-6.657c2.225-0.072,4.109-1.673,4.482-3.804
							c1.023-5.846,1.959-14.738,0.603-23.881c-1.286-8.679-8.701-15.133-17.63-15.343
							C1425.815,672.882,1417.689,672.758,1408.432,672.758z"/>
						<path style="fill:#FFFFFF;" d="M1387.864,968.409l-67.626-0.095l-198.5-39.459c-9.264-1.84-16.071-9.683-16.552-19.078
							c-1.239-24.27-3.368-84.915,3.596-123.805c1.874-10.47,10.947-18.169,21.573-18.303l0,0
							c57.017-0.732,345.654-3.863,428.188,6.098c9.143,1.104,16.61,7.846,18.584,16.771c4.448,20.114,14.668,72.445,13.491,123.848
							c-0.209,9.114-6.936,16.977-15.995,18.692L1387.864,968.409z M1321.71,958.37h65.213l185.834-35.155
							c4.433-0.84,7.725-4.65,7.826-9.058c1.15-50.308-8.889-101.692-13.259-121.449c-1.054-4.774-5.067-8.379-9.985-8.974
							c-81.9-9.879-369.944-6.748-426.856-6.026l0,0c-5.82,0.072-10.79,4.294-11.818,10.036
							c-6.782,37.864-4.673,97.601-3.452,121.524c0.245,4.791,3.734,8.797,8.482,9.738L1321.71,958.37z"/>
						<path style="fill:#FFFFFF;" d="M1381.162,991.172h-57.975c-7.597,0-13.996-5.653-14.897-13.161l-6.698-55.787
							c-1.067-8.886,5.905-16.705,14.897-16.705h69.647c8.81,0,15.723,7.519,14.944,16.253l-4.974,55.787
							C1395.42,985.265,1388.934,991.172,1381.162,991.172z"/>
					</g>
					<path style="fill:#FFFFFF;" d="M2314.974,1612.778h-660.273c-11.072,0-20.078-9.006-20.078-20.078v-441.371
						c0-11.071,9.006-20.078,20.078-20.078h660.273c11.071,0,20.078,9.006,20.078,20.078V1592.7
						C2335.052,1603.771,2326.045,1612.778,2314.974,1612.778z M1654.701,1141.291c-5.536,0-10.039,4.503-10.039,10.039V1592.7
						c0,5.536,4.503,10.039,10.039,10.039h660.273c5.536,0,10.039-4.503,10.039-10.039v-441.371c0-5.536-4.503-10.039-10.039-10.039
						H1654.701z"/>
					<path style="fill:#FFFFFF;" d="M2314.974,1835.049h-660.273c-11.072,0-20.078-9.006-20.078-20.078V1672.21
						c0-11.071,9.006-20.078,20.078-20.078h660.273c11.071,0,20.078,9.006,20.078,20.078v142.762
						C2335.052,1826.043,2326.045,1835.049,2314.974,1835.049z M1654.701,1662.171c-5.536,0-10.039,4.503-10.039,10.039v142.762
						c0,5.536,4.503,10.039,10.039,10.039h660.273c5.536,0,10.039-4.503,10.039-10.039V1672.21c0-5.536-4.503-10.039-10.039-10.039
						H1654.701z"/>
					<path style="fill:#FFFFFF;" d="M2318.245,1087.407h-660.08c-11.124,0-20.174-9.052-20.174-20.176V840.385
						c0-6.225,3.126-11.957,8.361-15.329l0.82-0.428l321.906-131.537c6.771-3.268,14.825-3.251,21.583,0.062l341.103,140.203
						l0.413,0.274c4.975,3.314,7.92,8.856,7.875,14.83l-1.634,218.808C2338.419,1078.355,2329.369,1087.407,2318.245,1087.407z
						 M1651.449,833.725c-2.149,1.539-3.42,4-3.42,6.66v226.847c0,5.588,4.547,10.137,10.135,10.137h660.08
						c5.588,0,10.135-4.549,10.135-10.137l1.634-218.844c0.018-2.431-1.113-4.699-3.044-6.147l-340.427-139.939
						c-4.336-2.118-9.156-2.114-13.197-0.124l-0.319,0.144L1651.449,833.725z"/>
				</g>
			</g>
			<rect x="1661.366" y="1162.649" style="fill:#FFFFFF;" width="642.483" height="6.693"/>
			
				<rect x="1654.82" y="1676.777" transform="matrix(0.9997 -0.025 0.025 0.9997 -43.0691 41.9828)" style="fill:#FFFFFF;" width="6.691" height="134.752"/>
			
				<rect x="1645.659" y="777.625" transform="matrix(0.9265 -0.3763 0.3763 0.9265 -160.431 740.7191)" style="fill:#FFFFFF;" width="339.898" height="6.695"/>
		</g>
		<g>
			<g>
				
					<linearGradient id="SVGID_00000034782375364976798230000016645091703627834270_" gradientUnits="userSpaceOnUse" x1="-1738.3929" y1="3106.5061" x2="-1480.3981" y2="3106.5061" gradientTransform="matrix(-1 0 0 1 1036.3153 0)">
					<stop  offset="0" style="stop-color:#53D8FF"/>
					<stop  offset="1" style="stop-color:#3840F7"/>
				</linearGradient>
				<path style="fill:url(#SVGID_00000034782375364976798230000016645091703627834270_);" d="M2523.999,3094.028
					c44.197,3.821,120.905,10.026,181.377,12.688c36.352,1.6,57.28-1.96,69.333-6.785c-0.021,1.359-0.058,2.643-0.112,3.835
					c-0.286,6.363-5.457,11.454-11.884,11.813c-114.266,6.378-205.141,2.207-237.493,0.238c-6.69-0.408-10.676-7.677-7.255-13.38
					C2519.675,3099.585,2521.748,3096.79,2523.999,3094.028z"/>
				
					<linearGradient id="SVGID_00000085235766842103385810000010990289743109743785_" gradientUnits="userSpaceOnUse" x1="-1738.4077" y1="3055.9424" x2="-1487.6833" y2="3055.9424" gradientTransform="matrix(-1 0 0 1 1036.3153 0)">
					<stop  offset="0" style="stop-color:#2B3582"/>
					<stop  offset="1" style="stop-color:#150E42"/>
				</linearGradient>
				<path style="fill:url(#SVGID_00000085235766842103385810000010990289743109743785_);" d="M2705.375,3106.715
					c-60.472-2.662-137.179-8.867-181.377-12.688c43.454-53.313,181.377-89.246,181.377-89.246h38.954
					c26.792,38.62,30.672,75.389,30.378,95.148C2762.655,3104.756,2741.728,3108.315,2705.375,3106.715z"/>
				
					<linearGradient id="SVGID_00000159457556967712612850000010036413599167965106_" gradientUnits="userSpaceOnUse" x1="-1714.5741" y1="2985.3486" x2="-1641.9021" y2="2985.3486" gradientTransform="matrix(-1 0 0 1 1036.3153 0)">
					<stop  offset="0" style="stop-color:#F9B776"/>
					<stop  offset="1" style="stop-color:#F47960"/>
				</linearGradient>
				<path style="fill:url(#SVGID_00000159457556967712612850000010036413599167965106_);" d="M2750.889,2941.187l-3.646,72.136
					c-0.395,7.812-6.242,14.376-14.065,15.494c-7.784,1.113-18.208,1.255-29.262-2.425c-6.801-2.263-11.85-7.993-13.104-14.983
					l-12.596-70.222H2750.889z"/>
				<g>
					
						<linearGradient id="SVGID_00000039825989965946205660000005827265079271983000_" gradientUnits="userSpaceOnUse" x1="-2198.8794" y1="3170.4805" x2="-2100.0117" y2="3170.4805" gradientTransform="matrix(-1 0 0 1 1036.3153 0)">
						<stop  offset="0" style="stop-color:#53D8FF"/>
						<stop  offset="1" style="stop-color:#3840F7"/>
					</linearGradient>
					<path style="fill:url(#SVGID_00000039825989965946205660000005827265079271983000_);" d="M3203,3177.242
						c19.167-3.455,27.839-16.323,31.475-30.08c0.024,0.124,0.048,0.247,0.072,0.37c2.82,14.512-3.717,29.552-16.786,36.705
						c-15.796,8.646-33.068,10.119-46.477,9.404c-14.386-0.766-27.591-8.46-34.849-20.773l-0.109-0.185
						C3150.767,3181.917,3171.036,3183.004,3203,3177.242z"/>
					
						<linearGradient id="SVGID_00000030458181356795671880000016419838232863828147_" gradientUnits="userSpaceOnUse" x1="-2198.1604" y1="3072.0955" x2="-2053.0417" y2="3072.0955" gradientTransform="matrix(-1 0 0 1 1036.3153 0)">
						<stop  offset="0" style="stop-color:#2B3582"/>
						<stop  offset="1" style="stop-color:#150E42"/>
					</linearGradient>
					<path style="fill:url(#SVGID_00000030458181356795671880000016419838232863828147_);" d="M3112.633,2963.414h32.124
						c48.933-1.293,79.66,132.094,89.718,183.749c-3.636,13.757-12.308,26.625-31.475,30.08c-31.964,5.762-52.233,4.675-66.673-4.56
						c-26.436-44.96-39.542-110.808-45.842-149.237C3083.32,2979.739,3112.633,2963.414,3112.633,2963.414z"/>
				</g>
				
					<linearGradient id="SVGID_00000008857794962372027800000000719357025658353580_" gradientUnits="userSpaceOnUse" x1="-2122.7297" y1="2947.4531" x2="-2035.8794" y2="2947.4531" gradientTransform="matrix(-1 0 0 1 1036.3153 0)">
					<stop  offset="0" style="stop-color:#F9B776"/>
					<stop  offset="1" style="stop-color:#F47960"/>
				</linearGradient>
				<path style="fill:url(#SVGID_00000008857794962372027800000000719357025658353580_);" d="M3140.629,2896.458l17.838,70.949
					c2.188,8.699-1.976,17.697-10.019,21.824c-9.979,5.122-24.029,10.503-36.941,8.945c-6.072-0.732-11.117-5.01-13.123-10.727
					l-26.189-74.646L3140.629,2896.458z"/>
				
					<linearGradient id="SVGID_00000030460364111327065200000006487206341193724820_" gradientUnits="userSpaceOnUse" x1="-1420.2357" y1="2010.2299" x2="-2161.739" y2="3224.8831" gradientTransform="matrix(-1 0 0 1 1036.3153 0)">
					<stop  offset="0" style="stop-color:#53D8FF"/>
					<stop  offset="1" style="stop-color:#3840F7"/>
				</linearGradient>
				<path style="fill:url(#SVGID_00000030460364111327065200000006487206341193724820_);" d="M2513.117,1962.021
					c0,0,159.412,996.462,156.787,1001.938c0,0,44.028,20.011,92.026,2.55c0,0-14.416-532.679-48.194-736.922
					c0,0,272.063,476.112,358.458,713.348c0,0,45.062-5.373,82.362-29.922c0,0-292.935-856.978-371.087-971.123L2513.117,1962.021z"
					/>
				
					<linearGradient id="SVGID_00000008134096236213784590000016600168970722260109_" gradientUnits="userSpaceOnUse" x1="-1652.5786" y1="2232.8682" x2="-1586.108" y2="2102.5339" gradientTransform="matrix(-1 0 0 1 1036.3153 0)">
					<stop  offset="0" style="stop-color:#53D8FF"/>
					<stop  offset="1" style="stop-color:#3840F7"/>
				</linearGradient>
				<path style="fill:url(#SVGID_00000008134096236213784590000016600168970722260109_);" d="M2707.369,2223.037
					c-1.114,0-2.204-0.556-2.84-1.572l-58.806-93.931l-42.43-8.536c-1.812-0.366-2.985-2.131-2.621-3.941
					c0.366-1.81,2.134-3.007,3.941-2.621l43.841,8.82c0.902,0.183,1.688,0.726,2.176,1.507l59.571,95.153
					c0.98,1.565,0.505,3.631-1.06,4.611C2708.59,2222.873,2707.976,2223.037,2707.369,2223.037z"/>
				
					<linearGradient id="SVGID_00000090984351950125854190000012524986620256631734_" gradientUnits="userSpaceOnUse" x1="-928.1442" y1="1118.0447" x2="-1272.1196" y2="1565.547" gradientTransform="matrix(-1 0 0 1 1036.3153 0)">
					<stop  offset="0" style="stop-color:#F9B776"/>
					<stop  offset="1" style="stop-color:#F47960"/>
				</linearGradient>
				<path style="fill:url(#SVGID_00000090984351950125854190000012524986620256631734_);" d="M1781.583,986.268
					c0,0,107.569,23.724,172.995,53.933c12.995,5.999,23.359,16.49,29.262,29.419c19.567,42.863,78.111,150.349,191.646,201.642
					c-16.35,21.702-42.677,66.842-54.145,142.714c-68.19-50.753-127.06-135.513-155.323-274.522c0,0-21.522,11.7-48.37-1.339
					c-14.185-6.889-30.563-16.661-42.858-24.345c-12.25-7.658-21.374-19.561-24.917-33.462c-4.679-18.357-1.923-34.499-1.923-51.816
					l-55.292-17.13C1792.657,1011.361,1776.035,1005.087,1781.583,986.268z"/>
				
					<linearGradient id="SVGID_00000015317003245714595520000012790542515490743188_" gradientUnits="userSpaceOnUse" x1="-1328.0801" y1="1229.7218" x2="-2476.4851" y2="2590.7944" gradientTransform="matrix(-1 0 0 1 1036.3153 0)">
					<stop  offset="0" style="stop-color:#FDF53F"/>
					<stop  offset="1" style="stop-color:#D93C65"/>
				</linearGradient>
				<path style="fill:url(#SVGID_00000015317003245714595520000012790542515490743188_);" d="M2121.341,1413.977
					c11.469-75.872,37.795-121.013,54.145-142.714c70.531,31.865,162.276,42.053,279.105,1.57
					c10.769-3.732,22.003-5.917,33.392-6.585c62.195-3.647,237.496-11.556,407.087,44.474c35.691,11.791,80.918,56.242,95.817,90.43
					c45.876,105.279,123.39,290.853-60.691,422.754c-15.842-39.33-31.681-54.455-47.315-77.682
					c33.205-56.008,28.575-122.475-30.349-222.091c-42.966,116.017-63.123,285.299-67.334,360.215
					c-1.387,24.666,2.94,49.284,12.618,72.057l1.055,2.484c2.071,4.873-0.779,10.474-5.989,11.644
					c-116.077,26.074-236.806,18.99-272.875,16.01c-6.439-0.532-11.789-5.139-13.266-11.363
					c-56.444-237.836-56.574-400.072-42.754-502.63C2411.186,1484.354,2249.727,1509.532,2121.341,1413.977z"/>
				
					<linearGradient id="SVGID_00000013177848001187583830000018436125578967059901_" gradientUnits="userSpaceOnUse" x1="483.6292" y1="1330.5167" x2="848.5154" y2="1450.3025" gradientTransform="matrix(-1 0 0 1 3183.1494 0)">
					<stop  offset="0" style="stop-color:#FDF53F"/>
					<stop  offset="1" style="stop-color:#D93C65"/>
				</linearGradient>
				<path style="fill:url(#SVGID_00000013177848001187583830000018436125578967059901_);" d="M2463.755,1476.078
					c0.91,0,1.702-0.674,1.824-1.601c13.363-100.95,40.664-144.989,40.939-145.422c0.544-0.86,0.289-1.999-0.571-2.543
					c-0.858-0.547-1.996-0.292-2.542,0.569c-0.279,0.438-27.995,45.039-41.479,146.912c-0.134,1.01,0.576,1.935,1.585,2.069
					C2463.592,1476.073,2463.674,1476.078,2463.755,1476.078z"/>
				
					<linearGradient id="SVGID_00000129204425882478542950000006409904208419237005_" gradientUnits="userSpaceOnUse" x1="-1694.858" y1="1407.2723" x2="-1657.2266" y2="1209.7072" gradientTransform="matrix(-1 0 0 1 1036.3153 0)">
					<stop  offset="0" style="stop-color:#F9B776"/>
					<stop  offset="1" style="stop-color:#F47960"/>
				</linearGradient>
				<path style="fill:url(#SVGID_00000129204425882478542950000006409904208419237005_);" d="M2750.216,1127.698
					c0,0,11.743,124.159,22.082,160.885c1.569,5.572-0.852,11.448-5.914,14.34c-17.548,10.027-59.635,26.381-117.205-1.833
					c-9.326-4.571-14.933-14.292-14.499-24.581l5.072-119.978L2750.216,1127.698z"/>
				<g>
					
						<linearGradient id="SVGID_00000063623044004104965380000001176248092573886395_" gradientUnits="userSpaceOnUse" x1="-1593.0327" y1="1044.8031" x2="-1807.743" y2="1209.0892" gradientTransform="matrix(-1 0 0 1 1036.3153 0)">
						<stop  offset="0" style="stop-color:#F9B776"/>
						<stop  offset="1" style="stop-color:#F47960"/>
					</linearGradient>
					<path style="fill:url(#SVGID_00000063623044004104965380000001176248092573886395_);" d="M2637.221,968.859
						c0,0-37.559,86.278-40.081,131.563c-2.522,45.284-12.281,74.669,40.081,83.788c52.361,9.119,96.471-16.965,120.367-62.074
						c0,0,37.441-69.507,29.042-97.973C2778.231,995.698,2637.221,968.859,2637.221,968.859z"/>
					
						<linearGradient id="SVGID_00000178170166321332759930000013080289431653170073_" gradientUnits="userSpaceOnUse" x1="-1744.1794" y1="914.7241" x2="-1544.2103" y2="1172.1838" gradientTransform="matrix(-1 0 0 1 1036.3153 0)">
						<stop  offset="0" style="stop-color:#2B3582"/>
						<stop  offset="1" style="stop-color:#150E42"/>
					</linearGradient>
					<path style="fill:url(#SVGID_00000178170166321332759930000013080289431653170073_);" d="M2739.696,1089.704l-2.981-1.314
						c-3.795-1.673-5.418-6.189-3.511-9.873c7.383-14.266,21.778-46.958,3.183-54.584c-23.965-9.829-118.891-29.186-139.372-62.869
						c-19.684-32.373-2.243-74.16,23.968-86.045c1.754-0.796,3.822-0.164,4.722,1.539l2.185,4.133
						c1.495,2.829,5.674,2.4,6.563-0.673v-0.001c0.854-2.951,4.779-3.523,6.406-0.918c6.296,10.077,23.292,26.414,68.745,34.803
						c64.597,11.922,107.304,38.062,108.367,82.699c0.067,2.836,3.084,4.413,5.507,2.937c4.769-2.906,12.402-4.27,22.602,4.307
						c17.74,14.917,10.481,53.612-28.409,85.441c-1.847,1.512-1.832,4.396,0.168,5.699c7.051,4.589,17.561,15.51-9.672,30.068
						c-28.168,15.057-49.202,13.822-57.302,12.485c-2.015-0.333-3.314-2.284-2.874-4.278l8.645-39.232
						c0.489-2.22-1.201-4.323-3.475-4.323H2739.696z"/>
					
						<linearGradient id="SVGID_00000045615728759325864960000007720742073776292507_" gradientUnits="userSpaceOnUse" x1="-1619.6644" y1="1009.9961" x2="-1834.3756" y2="1174.2828" gradientTransform="matrix(-1 0 0 1 1036.3153 0)">
						<stop  offset="0" style="stop-color:#F9B776"/>
						<stop  offset="1" style="stop-color:#F47960"/>
					</linearGradient>
					<path style="fill:url(#SVGID_00000045615728759325864960000007720742073776292507_);" d="M2738.069,1097.982
						c0,0,14.328-55.113,39.038-39.66c24.71,15.453-12.823,61.752-32.688,63.814L2738.069,1097.982z"/>
				</g>
				<path style="fill:#F8A570;" d="M1937.326,1125.272c-0.972,0-1.936-0.422-2.598-1.235c-10.794-13.277-41.137-49.05-51.782-55.063
					c-7.273-4.111-11.393-8.591-12.599-13.699c-1.006-4.265,0.069-8.657,3.286-13.434c0.756-1.118,2.109-1.693,3.433-1.412
					l46.956,9.408c0.564,0.111,1.087,0.369,1.523,0.742l24.963,21.427c1.402,1.203,1.564,3.317,0.359,4.719
					c-1.203,1.402-3.315,1.565-4.719,0.359l-24.298-20.859l-43.796-8.774c-1.243,2.35-1.634,4.421-1.193,6.284
					c0.742,3.147,3.897,6.313,9.377,9.408c13.921,7.866,52.065,54.681,53.682,56.671c1.167,1.435,0.949,3.542-0.485,4.709
					C1938.815,1125.027,1938.068,1125.272,1937.326,1125.272z"/>
				
					<linearGradient id="SVGID_00000049929597978254404230000009945878113666750870_" gradientUnits="userSpaceOnUse" x1="347.1059" y1="1641.1121" x2="-31.351" y2="3078.1541" gradientTransform="matrix(-1 0 0 1 3183.1494 0)">
					<stop  offset="0" style="stop-color:#2B3582"/>
					<stop  offset="1" style="stop-color:#150E42"/>
				</linearGradient>
				<path style="fill:url(#SVGID_00000049929597978254404230000009945878113666750870_);" d="M2830.893,1293.548l-78.531,174.618
					l-53.752-16.717l87.085-167.536c1.287-2.475,4.035-3.825,6.78-3.329l34.909,6.303
					C2830.441,1287.438,2832.167,1290.715,2830.893,1293.548z"/>
				
					<linearGradient id="SVGID_00000162310369989213785390000001110445315975435710_" gradientUnits="userSpaceOnUse" x1="539.9479" y1="1693.4713" x2="158.4388" y2="3142.1028" gradientTransform="matrix(-1 0 0 1 3183.1494 0)">
					<stop  offset="0" style="stop-color:#2B3582"/>
					<stop  offset="1" style="stop-color:#150E42"/>
				</linearGradient>
				<polygon style="fill:url(#SVGID_00000162310369989213785390000001110445315975435710_);" points="2506.804,1421.042 
					2549.522,1263.917 2594.769,1264.078 2546.758,1421.042 				"/>
				
					<linearGradient id="SVGID_00000183237774487880897110000004036895655564763567_" gradientUnits="userSpaceOnUse" x1="571.239" y1="1701.7109" x2="189.7288" y2="3150.3462" gradientTransform="matrix(-1 0 0 1 3183.1494 0)">
					<stop  offset="0" style="stop-color:#2B3582"/>
					<stop  offset="1" style="stop-color:#150E42"/>
				</linearGradient>
				<path style="fill:url(#SVGID_00000183237774487880897110000004036895655564763567_);" d="M2737.022,1446.581
					c-71.324-2.785-146.882-16.736-225.578-38.962c-2.634-0.744-5.408,0.614-6.418,3.158l-46.534,117.224
					c-11.178,140.403,7.756,290.367,48.248,447.177c36.49,251.319,61.447,489.35,103.638,693.803
					c1.049,5.083,5.479,8.769,10.667,8.907c256.561,6.849,412.396-20.76,478.184-66.746c5.322-3.72,6.92-10.872,3.672-16.495
					c-78.134-135.264-278.205-632.518-307.665-663.748l34.684-333.792c-37.664-50.255-67.794-98.565-82.722-142.948
					C2745.716,1449.751,2741.669,1446.762,2737.022,1446.581z"/>
			</g>
			
				<linearGradient id="SVGID_00000051344129307116256740000001463180608077462182_" gradientUnits="userSpaceOnUse" x1="501.9991" y1="1778.4551" x2="-89.528" y2="1880.7285" gradientTransform="matrix(-1 0 0 1 3183.1494 0)">
				<stop  offset="0" style="stop-color:#F9B776"/>
				<stop  offset="1" style="stop-color:#F47960"/>
			</linearGradient>
			<path style="fill:url(#SVGID_00000051344129307116256740000001463180608077462182_);" d="M2734.267,1854.75l-90.243-30.845
				c11.155-1.589,22.354-2.917,33.561-4.078c9.405-0.974,18.831-1.831,28.275-2.314c10.183-0.522-3.425,8.681-6.67-4.453
				c-1.523-6.164-8.428-17.025-12.336-22.029c9.034,2.46,41.94,1.631,49.439,7.557c1.98,1.565,3.841,3.284,5.906,4.734
				c10.58,7.428,24.217,8.464,35.809,4.345c10.591-3.761,21.015-7.814,31.188-12.611c26.751-12.615,51.61-29.156,73.685-48.834
				c22.928,13.905,44.124,35.402,47.315,77.682C2883.305,1845.575,2809.467,1865.548,2734.267,1854.75z"/>
			<g>
				
					<linearGradient id="SVGID_00000043452983472429700280000005137567635818913976_" gradientUnits="userSpaceOnUse" x1="-2637.5415" y1="5538.1978" x2="-2702.1604" y2="5629.8394" gradientTransform="matrix(-0.2234 0.9747 -0.9747 -0.2234 6507.7388 4438.8818)">
					<stop  offset="0" style="stop-color:#CB236D"/>
					<stop  offset="0.1342" style="stop-color:#BA236D"/>
					<stop  offset="1" style="stop-color:#4C246D"/>
				</linearGradient>
				<path style="fill:url(#SVGID_00000043452983472429700280000005137567635818913976_);" d="M2841.14,1943.976
					c0,0,25.707,30.046,55.175,30.025c29.467-0.021,42.308-20.618,43.184-30.893c1.433-16.82-7.902-52.261-49.42-57.308
					c-16.427-1.997-28.628,0.071-37.375,3.3c-16.931,6.249-35.483,6.529-52.468,0.428l-58.306-20.943l11.771,32.646
					C2753.7,1901.231,2804.573,1901.692,2841.14,1943.976z M2850.35,1911.018c6.31-13.897,26.573-18.283,45.26-9.799
					c18.687,8.485,28.72,26.629,22.411,40.525s-26.574,18.284-45.261,9.799C2854.073,1943.059,2844.04,1924.915,2850.35,1911.018z"
					/>
				
					<linearGradient id="SVGID_00000127031733683640760830000013509382049108084119_" gradientUnits="userSpaceOnUse" x1="-2568.2937" y1="5587.0503" x2="-2632.9133" y2="5678.6929" gradientTransform="matrix(-0.2234 0.9747 -0.9747 -0.2234 6507.7388 4438.8818)">
					<stop  offset="0" style="stop-color:#CB236D"/>
					<stop  offset="0.1342" style="stop-color:#BA236D"/>
					<stop  offset="1" style="stop-color:#4C246D"/>
				</linearGradient>
				<path style="fill:url(#SVGID_00000127031733683640760830000013509382049108084119_);" d="M2753.206,1939.952
					c-1.633,16.137-0.09,46.569,24.772,81.323c36.873,51.542,81.369,46.034,88.436,44.138c7.068-1.897,36.423-19.738,11.908-53.27
					c-24.514-33.532-73.837-80.906-85.31-86.387c-6.573-3.14-15.819-6.96-22.519-9.65c-5.708-2.292-10.818-5.825-14.982-10.354
					l-12.57-13.673l-31.224-1.881c-0.124-0.174,16.319,22.811,16.319,22.811l15.197,8.121
					C2750.085,1924.791,2753.988,1932.224,2753.206,1939.952z M2824.206,1979.818c26.199,23.376,51.178,54.433,39.446,62.826
					c-11.732,8.393-49.82,0.047-70.597-28.996c-20.777-29.043-31.64-55.227-19.907-63.621
					C2784.881,1941.634,2797.561,1956.044,2824.206,1979.818z"/>
				
					<linearGradient id="SVGID_00000086684266473365545340000007312146817396041626_" gradientUnits="userSpaceOnUse" x1="2661.4294" y1="1687.7706" x2="2816.5129" y2="1386.4156">
					<stop  offset="0" style="stop-color:#53D8FF"/>
					<stop  offset="1" style="stop-color:#3840F7"/>
				</linearGradient>
				<path style="fill:url(#SVGID_00000086684266473365545340000007312146817396041626_);" d="M2509.099,1591.017
					c0,0,8.707-6.229,18.868,2.824c10.161,9.052,225.512,275.433,225.512,275.433l0.222,31.957l-37.135-1.865l-206.414-298.046
					L2509.099,1591.017z"/>
				
					<linearGradient id="SVGID_00000101105415227488151690000014681915820191597468_" gradientUnits="userSpaceOnUse" x1="2695.4211" y1="1660.0079" x2="2492.7546" y2="1885.5847">
					<stop  offset="0" style="stop-color:#53D8FF"/>
					<stop  offset="1" style="stop-color:#3840F7"/>
				</linearGradient>
				<polygon style="fill:url(#SVGID_00000101105415227488151690000014681915820191597468_);" points="2716.566,1899.365 
					2728.156,1899.948 2509.099,1591.017 2510.152,1601.32 				"/>
				
					<linearGradient id="SVGID_00000063616662248346634610000011191372754681515947_" gradientUnits="userSpaceOnUse" x1="-3015.4668" y1="3535.071" x2="-2998.3384" y2="3535.071" gradientTransform="matrix(-0.0579 0.9983 -0.9983 -0.0579 6087.4922 5087.3086)">
					<stop  offset="0" style="stop-color:#CB236D"/>
					<stop  offset="0.1342" style="stop-color:#BA236D"/>
					<stop  offset="1" style="stop-color:#4C246D"/>
				</linearGradient>
				<path style="fill:url(#SVGID_00000063616662248346634610000011191372754681515947_);" d="M2725.566,1885.82
					c-2.752-3.847-1.864-9.196,1.982-11.948c3.847-2.752,9.196-1.864,11.948,1.982c2.752,3.847,1.864,9.196-1.982,11.948
					C2733.667,1890.554,2728.317,1889.666,2725.566,1885.82z"/>
			</g>
			
				<linearGradient id="SVGID_00000041997545592640943320000014559172768494524335_" gradientUnits="userSpaceOnUse" x1="509.7332" y1="1823.1877" x2="-81.7951" y2="1925.4613" gradientTransform="matrix(-1 0 0 1 3183.1494 0)">
				<stop  offset="0" style="stop-color:#F9B776"/>
				<stop  offset="1" style="stop-color:#F47960"/>
			</linearGradient>
			<path style="fill:url(#SVGID_00000041997545592640943320000014559172768494524335_);" d="M2767.977,1828.226
				c-1.327,0.534-4.6,10.943-5.508,12.498c-5.31,9.093-12.916,16.811-22.323,21.646c-32.838,16.876-81.686-0.867-100.85-30.275
				c-6.481-9.945-10.037-23.513-10.052-35.307c-0.018-13.665,11.438-30.708,18.614-10.285c2.148,6.112,7.949,10.093,13.58,13.295
				c17.834,10.141,35.057,3.394,55.376,6.213C2731.334,1808.025,2753.27,1834.144,2767.977,1828.226z"/>
		</g>
		<g>
			
				<linearGradient id="SVGID_00000030449936906491698930000003504300821659614359_" gradientUnits="userSpaceOnUse" x1="1236.282" y1="1334.7753" x2="1703.0612" y2="3221.9736">
				<stop  offset="0" style="stop-color:#CB236D"/>
				<stop  offset="1" style="stop-color:#4C246D"/>
			</linearGradient>
			<path style="fill:url(#SVGID_00000030449936906491698930000003504300821659614359_);" d="M615.629,2325.897l19.929,619.818
				c3.476,108.079,92.172,194.088,200.812,194.729l1484.26,8.749c72.611,0.428,134.469-52.331,145.071-123.829
				c23.209-156.525,52.78-436.592,19.481-699.466H615.629z"/>
			<path style="fill:#FFFFFF;" d="M2289.915,3113.735c-2.37,0-4.334-1.877-4.421-4.264c-0.09-2.439,1.813-4.498,4.261-4.594
				c8.586-0.32,17.154-1.462,25.463-3.4c2.366-0.553,4.762,0.935,5.316,3.314c0.558,2.378-0.926,4.767-3.309,5.32
				c-8.858,2.059-17.99,3.278-27.142,3.624C2290.028,3113.735,2289.971,3113.735,2289.915,3113.735z M2227.915,3113.502
				c-0.008,0-0.017,0-0.026,0l-26.575-0.156c-2.448-0.018-4.416-2.007-4.404-4.455c0.013-2.44,1.994-4.404,4.429-4.404
				c0.009,0,0.018,0,0.027,0l26.575,0.156c2.448,0.017,4.416,2.007,4.403,4.455
				C2232.332,3111.538,2230.35,3113.502,2227.915,3113.502z M2139.332,3112.983c-0.008,0-0.017,0-0.026,0l-26.57-0.156
				c-2.448-0.018-4.416-2.007-4.404-4.455c0.013-2.439,1.994-4.403,4.429-4.403c0.009,0,0.018,0,0.027,0l26.571,0.156
				c2.448,0.017,4.416,2.007,4.403,4.455C2143.749,3111.019,2141.767,3112.983,2139.332,3112.983z M2050.753,3112.455
				c-0.008,0-0.017,0-0.026,0l-26.575-0.156c-2.448-0.017-4.416-2.006-4.403-4.455c0.013-2.44,1.994-4.404,4.429-4.404
				c0.009,0,0.018,0,0.026,0l26.575,0.156c2.448,0.018,4.416,2.007,4.403,4.455
				C2055.17,3110.491,2053.188,3112.455,2050.753,3112.455z M1962.17,3111.936c-0.008,0-0.017,0-0.026,0l-26.575-0.156
				c-2.448-0.017-4.416-2.007-4.403-4.455c0.013-2.448,2.375-4.429,4.456-4.404l26.575,0.156c2.448,0.018,4.416,2.007,4.403,4.455
				C1966.587,3109.972,1964.605,3111.936,1962.17,3111.936z M1873.587,3111.417c-0.008,0-0.017,0-0.026,0l-26.571-0.156
				c-2.448-0.017-4.416-2.006-4.403-4.455c0.013-2.44,1.994-4.404,4.429-4.404c0.009,0,0.018,0,0.026,0l26.571,0.156
				c2.448,0.018,4.416,2.007,4.403,4.455C1878.004,3109.453,1876.022,3111.417,1873.587,3111.417z M1785.009,3110.888
				c-0.009,0-0.017,0-0.026,0l-26.575-0.155c-2.448-0.018-4.416-2.007-4.403-4.456c0.013-2.44,1.994-4.403,4.429-4.403
				c0.009,0,0.018,0,0.026,0l26.575,0.155c2.448,0.018,4.417,2.007,4.403,4.456
				C1789.425,3108.926,1787.444,3110.888,1785.009,3110.888z M1696.426,3110.37c-0.009,0-0.017,0-0.026,0l-26.575-0.156
				c-2.448-0.018-4.416-2.007-4.403-4.456c0.013-2.439,1.994-4.403,4.429-4.403c0.009,0,0.018,0,0.026,0l26.575,0.156
				c2.448,0.017,4.417,2.006,4.404,4.455C1700.842,3108.406,1698.861,3110.37,1696.426,3110.37z M1607.847,3109.851
				c-0.009,0-0.017,0-0.026,0l-26.575-0.156c-2.448-0.018-4.417-2.007-4.403-4.456c0.013-2.439,1.994-4.403,4.429-4.403
				c0.009,0,0.018,0,0.026,0l26.575,0.156c2.449,0.017,4.417,2.006,4.404,4.455
				C1612.263,3107.887,1610.282,3109.851,1607.847,3109.851z M1519.264,3109.323c-0.009,0-0.017,0-0.026,0l-26.575-0.156
				c-2.448-0.017-4.417-2.007-4.403-4.455c0.013-2.439,1.994-4.403,4.429-4.403c0.009,0,0.018,0,0.026,0l26.575,0.156
				c2.449,0.017,4.417,2.006,4.404,4.455C1523.68,3107.359,1521.699,3109.323,1519.264,3109.323z M1430.681,3108.804
				c-0.009,0-0.017,0-0.026,0l-26.575-0.156c-2.448-0.017-4.417-2.006-4.403-4.455c0.013-2.439,1.994-4.403,4.429-4.403
				c0.009,0,0.018,0,0.026,0l26.575,0.156c2.449,0.017,4.417,2.007,4.404,4.455
				C1435.097,3106.84,1433.116,3108.804,1430.681,3108.804z M1342.103,3108.285c-0.009,0-0.018,0-0.026,0l-26.575-0.156
				c-2.448-0.017-4.417-2.006-4.404-4.455c0.013-2.439,1.994-4.403,4.429-4.403c0.009,0,0.017,0,0.026,0l26.575,0.156
				c2.448,0.018,4.417,2.007,4.403,4.455C1346.518,3106.321,1344.538,3108.285,1342.103,3108.285z M1253.52,3107.757
				c-0.009,0-0.018,0-0.026,0l-26.575-0.155c-2.448-0.018-4.417-2.007-4.404-4.456c0.013-2.44,1.994-4.403,4.429-4.403
				c0.009,0,0.017,0,0.026,0l26.575,0.155c2.448,0.018,4.417,2.007,4.403,4.456
				C1257.935,3105.793,1255.955,3107.757,1253.52,3107.757z M1164.937,3107.238c-0.009,0-0.018,0-0.026,0l-26.575-0.155
				c-2.448-0.018-4.417-2.007-4.404-4.456c0.013-2.439,1.994-4.403,4.429-4.403c0.009,0,0.017,0,0.026,0l26.575,0.155
				c2.448,0.018,4.417,2.007,4.403,4.456C1169.352,3105.275,1167.372,3107.238,1164.937,3107.238z M1076.358,3106.719
				c-0.009,0-0.018,0-0.026,0l-26.575-0.155c-2.448-0.018-4.417-2.007-4.403-4.456c0.012-2.448,2.309-4.1,4.455-4.403l26.575,0.155
				c2.449,0.018,4.416,2.007,4.404,4.456C1080.774,3104.756,1078.793,3106.719,1076.358,3106.719z M987.775,3106.192
				c-0.009,0-0.018,0-0.026,0l-26.575-0.156c-2.448-0.018-4.417-2.007-4.403-4.455c0.012-2.439,1.994-4.403,4.429-4.403
				c0.009,0,0.017,0,0.026,0l26.575,0.156c2.449,0.017,4.416,2.007,4.404,4.455C992.191,3104.228,990.21,3106.192,987.775,3106.192z
				 M899.192,3105.673c-0.009,0-0.018,0-0.026,0l-26.575-0.156c-2.448-0.018-4.417-2.007-4.403-4.455
				c0.012-2.439,1.994-4.403,4.429-4.403c0.009,0,0.017,0,0.026,0l26.575,0.156c2.449,0.017,4.416,2.006,4.404,4.455
				C903.608,3103.709,901.627,3105.673,899.192,3105.673z M811.664,3095.776c-0.458,0-0.93-0.069-1.388-0.225
				c-8.543-2.821-16.999-6.281-25.135-10.294c-2.193-1.082-3.097-3.737-2.016-5.926c1.086-2.188,3.733-3.088,5.935-2.015
				c7.763,3.823,15.84,7.128,23.993,9.827c2.323,0.77,3.585,3.27,2.815,5.597C815.254,3094.6,813.524,3095.776,811.664,3095.776z
				 M2371.542,3083.389c-1.302,0-2.586-0.572-3.46-1.661c-1.531-1.912-1.22-4.697,0.688-6.229
				c6.705-5.363,12.903-11.384,18.43-17.88c1.579-1.869,4.365-2.102,6.242-0.51c1.864,1.583,2.093,4.377,0.506,6.245
				c-5.891,6.93-12.5,13.349-19.641,19.067C2373.489,3083.068,2372.511,3083.389,2371.542,3083.389z M736.84,3049.919
				c-1.124,0-2.253-0.424-3.114-1.28c-6.445-6.375-12.488-13.235-17.959-20.39c-1.487-1.937-1.115-4.723,0.826-6.21
				c1.942-1.479,4.732-1.116,6.207,0.83c5.229,6.825,10.999,13.383,17.154,19.473c1.739,1.721,1.757,4.524,0.034,6.263
				C739.124,3049.478,737.983,3049.919,736.84,3049.919z M2418.918,3010.368c-0.367,0-0.744-0.043-1.116-0.138
				c-2.366-0.615-3.79-3.037-3.175-5.398c1.181-4.567,2.132-9.248,2.82-13.919l1.726-11.756c0.35-2.423,2.551-4.127,5.017-3.755
				c2.422,0.355,4.101,2.604,3.745,5.018l-1.726,11.791c-0.735,4.974-1.748,9.965-3.01,14.836
				C2422.685,3009.045,2420.886,3010.368,2418.918,3010.368z M690.174,2975.54c-1.843,0-3.565-1.158-4.192-3.001
				c-2.911-8.521-5.242-17.362-6.933-26.264c-0.458-2.404,1.121-4.723,3.526-5.181c2.387-0.441,4.723,1.124,5.177,3.52
				c1.614,8.504,3.841,16.938,6.614,25.07c0.792,2.31-0.446,4.827-2.759,5.623C691.13,2975.463,690.65,2975.54,690.174,2975.54z
				 M2431.803,2922.745c-0.182,0-0.363-0.009-0.549-0.035c-2.426-0.303-4.152-2.509-3.849-4.939
				c1.06-8.573,2.115-17.354,3.157-26.35c0.281-2.431,2.504-4.169,4.909-3.893c2.431,0.285,4.169,2.483,3.889,4.914
				c-1.042,9.014-2.098,17.829-3.167,26.419C2435.917,2921.101,2434.009,2922.745,2431.803,2922.745z M679.097,2888.116
				c-2.379,0-4.347-1.886-4.42-4.291l-0.857-26.566c-0.082-2.44,1.838-4.49,4.282-4.567c2.24-0.113,4.49,1.834,4.567,4.291
				l0.857,26.566c0.082,2.44-1.838,4.49-4.282,4.567C679.196,2888.116,679.149,2888.116,679.097,2888.116z M2441.483,2834.681
				c-0.138,0-0.281-0.009-0.423-0.018c-2.435-0.233-4.222-2.396-3.988-4.836c0.826-8.677,1.634-17.491,2.413-26.428
				c0.213-2.44,2.327-4.109,4.797-4.031c2.435,0.207,4.24,2.362,4.027,4.792c-0.779,8.971-1.587,17.803-2.422,26.514
				C2445.67,2832.968,2443.741,2834.681,2441.483,2834.681z M676.246,2799.577c-2.378,0-4.347-1.895-4.42-4.291l-0.852-26.557
				c-0.082-2.439,1.838-4.49,4.282-4.568c2.396-0.034,4.489,1.844,4.567,4.291l0.852,26.558c0.082,2.44-1.838,4.489-4.282,4.567
				C676.346,2799.577,676.299,2799.577,676.246,2799.577z M2448.637,2746.375c-0.099,0-0.198,0-0.299-0.008
				c-2.438-0.165-4.286-2.275-4.126-4.715c0.58-8.737,1.125-17.57,1.626-26.488c0.135-2.44,2.237-4.377,4.667-4.17
				c2.444,0.138,4.313,2.223,4.174,4.671c-0.502,8.936-1.047,17.803-1.626,26.575
				C2452.898,2744.576,2450.952,2746.375,2448.637,2746.375z M673.4,2711.037c-2.378,0-4.347-1.895-4.42-4.291l-0.852-26.557
				c-0.082-2.44,1.838-4.49,4.282-4.568c2.375-0.173,4.494,1.852,4.567,4.291l0.852,26.557c0.082,2.44-1.838,4.49-4.282,4.568
				C673.5,2711.037,673.448,2711.037,673.4,2711.037z M2453.088,2657.896c-0.052,0-0.104,0-0.156,0
				c-2.444-0.086-4.36-2.137-4.273-4.576c0.294-8.788,0.554-17.63,0.765-26.523c0.06-2.457,2.409-4.239,4.533-4.325
				c2.448,0.061,4.381,2.085,4.325,4.533c-0.212,8.928-0.471,17.803-0.774,26.61
				C2457.431,2656.01,2455.462,2657.896,2453.088,2657.896z M670.554,2622.506c-2.378,0-4.347-1.894-4.42-4.29l-0.852-26.567
				c-0.082-2.44,1.838-4.49,4.282-4.567c2.353,0.13,4.494,1.851,4.567,4.291l0.852,26.566c0.082,2.44-1.838,4.49-4.282,4.567
				C670.654,2622.506,670.602,2622.506,670.554,2622.506z M2454.572,2569.313c-2.444,0-4.426-1.981-4.429-4.42
				c-0.013-8.806-0.073-17.647-0.186-26.531c-0.031-2.439,1.928-4.446,4.373-4.481c2.171,0.026,4.451,1.92,4.486,4.378
				c0.113,8.902,0.173,17.777,0.186,26.618c0.003,2.448-1.977,4.437-4.426,4.437H2454.572z M667.708,2533.966
				c-2.378,0-4.347-1.886-4.42-4.291l-0.857-26.566c-0.081-2.44,1.839-4.49,4.282-4.567c2.081-0.052,4.495,1.825,4.568,4.291
				l0.856,26.566c0.082,2.44-1.838,4.49-4.282,4.567C667.808,2533.966,667.76,2533.966,667.708,2533.966z M2452.703,2480.765
				c-2.362,0-4.321-1.86-4.42-4.248c-0.368-8.816-0.792-17.647-1.276-26.48c-0.139-2.439,1.735-4.533,4.177-4.663
				c2.423-0.207,4.525,1.731,4.663,4.178c0.493,8.867,0.917,17.734,1.284,26.601c0.104,2.439-1.795,4.507-4.239,4.612
				C2452.829,2480.765,2452.768,2480.765,2452.703,2480.765z M664.862,2445.427c-2.379,0-4.348-1.886-4.421-4.291l-0.856-26.557
				c-0.082-2.439,1.838-4.49,4.282-4.567c2.089-0.251,4.494,1.834,4.567,4.29l0.857,26.549c0.081,2.448-1.839,4.498-4.282,4.576
				C664.962,2445.427,664.914,2445.427,664.862,2445.427z M2447.01,2392.364c-2.27,0-4.204-1.73-4.407-4.04
				c-0.783-8.798-1.626-17.604-2.539-26.385c-0.255-2.431,1.51-4.611,3.945-4.861c2.435-0.243,4.611,1.514,4.866,3.945
				c0.917,8.832,1.769,17.673,2.552,26.523c0.216,2.431-1.583,4.585-4.018,4.801
				C2447.275,2392.354,2447.141,2392.364,2447.01,2392.364z M662.012,2356.887c-2.379,0-4.347-1.895-4.42-4.291l-0.852-26.557
				c-0.082-2.44,1.838-4.49,4.282-4.568c2.102-0.026,4.489,1.835,4.567,4.291l0.852,26.558c0.082,2.439-1.838,4.489-4.282,4.567
				C662.111,2356.887,662.063,2356.887,662.012,2356.887z M2414.177,2330.329h-26.575c-2.448,0-4.429-1.981-4.429-4.429
				c0-2.448,1.981-4.429,4.429-4.429h26.575c2.448,0,4.429,1.982,4.429,4.429
				C2418.606,2328.348,2416.626,2330.329,2414.177,2330.329z M2325.594,2330.329h-26.575c-2.448,0-4.429-1.981-4.429-4.429
				c0-2.448,1.981-4.429,4.429-4.429h26.575c2.448,0,4.429,1.982,4.429,4.429
				C2330.023,2328.348,2328.043,2330.329,2325.594,2330.329z M2237.011,2330.329h-26.575c-2.448,0-4.429-1.981-4.429-4.429
				c0-2.448,1.981-4.429,4.429-4.429h26.575c2.448,0,4.429,1.982,4.429,4.429C2241.44,2328.348,2239.46,2330.329,2237.011,2330.329z
				 M2148.428,2330.329h-26.575c-2.448,0-4.429-1.981-4.429-4.429c0-2.448,1.981-4.429,4.429-4.429h26.575
				c2.448,0,4.429,1.982,4.429,4.429C2152.857,2328.348,2150.877,2330.329,2148.428,2330.329z M2059.845,2330.329h-26.575
				c-2.448,0-4.429-1.981-4.429-4.429c0-2.448,1.981-4.429,4.429-4.429h26.575c2.448,0,4.429,1.982,4.429,4.429
				C2064.274,2328.348,2062.294,2330.329,2059.845,2330.329z M1971.262,2330.329h-26.575c-2.448,0-4.429-1.981-4.429-4.429
				c0-2.448,1.981-4.429,4.429-4.429h26.575c2.448,0,4.429,1.982,4.429,4.429
				C1975.692,2328.348,1973.711,2330.329,1971.262,2330.329z M1882.679,2330.329h-26.575c-2.448,0-4.429-1.981-4.429-4.429
				c0-2.448,1.981-4.429,4.429-4.429h26.575c2.448,0,4.429,1.982,4.429,4.429
				C1887.109,2328.348,1885.128,2330.329,1882.679,2330.329z M1794.096,2330.329h-26.575c-2.448,0-4.429-1.981-4.429-4.429
				c0-2.448,1.981-4.429,4.429-4.429h26.575c2.448,0,4.429,1.982,4.429,4.429
				C1798.526,2328.348,1796.545,2330.329,1794.096,2330.329z M1705.513,2330.329h-26.575c-2.448,0-4.429-1.981-4.429-4.429
				c0-2.448,1.981-4.429,4.429-4.429h26.575c2.448,0,4.429,1.982,4.429,4.429
				C1709.943,2328.348,1707.962,2330.329,1705.513,2330.329z M1616.93,2330.329h-26.575c-2.448,0-4.429-1.981-4.429-4.429
				c0-2.448,1.981-4.429,4.429-4.429h26.575c2.448,0,4.429,1.982,4.429,4.429C1621.359,2328.348,1619.379,2330.329,1616.93,2330.329
				z M1528.347,2330.329h-26.575c-2.448,0-4.429-1.981-4.429-4.429c0-2.448,1.981-4.429,4.429-4.429h26.575
				c2.448,0,4.429,1.982,4.429,4.429C1532.776,2328.348,1530.796,2330.329,1528.347,2330.329z M1439.764,2330.329h-26.575
				c-2.448,0-4.429-1.981-4.429-4.429c0-2.448,1.981-4.429,4.429-4.429h26.575c2.448,0,4.429,1.982,4.429,4.429
				C1444.193,2328.348,1442.213,2330.329,1439.764,2330.329z M1351.181,2330.329h-26.575c-2.448,0-4.429-1.981-4.429-4.429
				c0-2.448,1.981-4.429,4.429-4.429h26.575c2.448,0,4.429,1.982,4.429,4.429C1355.61,2328.348,1353.63,2330.329,1351.181,2330.329z
				 M1262.598,2330.329h-26.575c-2.449,0-4.429-1.981-4.429-4.429c0-2.448,1.981-4.429,4.429-4.429h26.575
				c2.448,0,4.429,1.982,4.429,4.429C1267.027,2328.348,1265.047,2330.329,1262.598,2330.329z M1174.015,2330.329h-26.575
				c-2.449,0-4.429-1.981-4.429-4.429c0-2.448,1.981-4.429,4.429-4.429h26.575c2.448,0,4.429,1.982,4.429,4.429
				C1178.444,2328.348,1176.464,2330.329,1174.015,2330.329z M1085.432,2330.329h-26.575c-2.448,0-4.429-1.981-4.429-4.429
				c0-2.448,1.981-4.429,4.429-4.429h26.575c2.448,0,4.429,1.982,4.429,4.429
				C1089.861,2328.348,1087.881,2330.329,1085.432,2330.329z M996.849,2330.329h-26.575c-2.448,0-4.429-1.981-4.429-4.429
				c0-2.448,1.981-4.429,4.429-4.429h26.575c2.448,0,4.429,1.982,4.429,4.429C1001.279,2328.348,999.298,2330.329,996.849,2330.329z
				 M908.266,2330.329h-26.575c-2.449,0-4.429-1.981-4.429-4.429c0-2.448,1.981-4.429,4.429-4.429h26.575
				c2.448,0,4.429,1.982,4.429,4.429C912.695,2328.348,910.715,2330.329,908.266,2330.329z M819.683,2330.329h-26.575
				c-2.449,0-4.429-1.981-4.429-4.429c0-2.448,1.981-4.429,4.429-4.429h26.575c2.448,0,4.429,1.982,4.429,4.429
				C824.112,2328.348,822.132,2330.329,819.683,2330.329z M731.1,2330.329h-26.575c-2.448,0-4.429-1.981-4.429-4.429
				c0-2.448,1.981-4.429,4.429-4.429H731.1c2.448,0,4.429,1.982,4.429,4.429C735.529,2328.348,733.549,2330.329,731.1,2330.329z"/>
			
				<linearGradient id="SVGID_00000049203248569424748430000010986783435690187921_" gradientUnits="userSpaceOnUse" x1="1183.941" y1="1999.8909" x2="1173.0389" y2="1735.5175">
				<stop  offset="0" style="stop-color:#CB236D"/>
				<stop  offset="1" style="stop-color:#4C246D"/>
			</linearGradient>
			<path style="fill:url(#SVGID_00000049203248569424748430000010986783435690187921_);" d="M1050.615,1875.94l4.466-47.802
				c5.04-11.412,15.506-19.492,27.874-21.46c46.241-7.361,160.922-20.301,216.14,20.967l8.249,55.549L1050.615,1875.94z"/>
			
				<linearGradient id="SVGID_00000083786268623968193210000008911880305079018920_" gradientUnits="userSpaceOnUse" x1="1170.1385" y1="1602.9669" x2="1224.6486" y2="2360.6575">
				<stop  offset="0" style="stop-color:#CB236D"/>
				<stop  offset="1" style="stop-color:#4C246D"/>
			</linearGradient>
			<path style="fill:url(#SVGID_00000083786268623968193210000008911880305079018920_);" d="M1195.062,1829.946
				c-10.646,2.596-21.312,2.589-31.997-0.037c-12.928-3.177-22.048-14.745-22.048-27.998l0.001-149.682h76.174l0.002,149.571
				C1217.193,1815.112,1208.054,1826.777,1195.062,1829.946z"/>
			
				<linearGradient id="SVGID_00000132051789453318484880000011815211942724850067_" gradientUnits="userSpaceOnUse" x1="1920.4905" y1="1969.5175" x2="1909.5884" y2="1705.1439">
				<stop  offset="0" style="stop-color:#CB236D"/>
				<stop  offset="1" style="stop-color:#4C246D"/>
			</linearGradient>
			<path style="fill:url(#SVGID_00000132051789453318484880000011815211942724850067_);" d="M1788.416,1875.94l4.466-47.802
				c5.04-11.412,15.506-19.492,27.873-21.46c46.242-7.361,160.922-20.301,216.141,20.967l8.25,55.549L1788.416,1875.94z"/>
			
				<linearGradient id="SVGID_00000037662856667780372890000006264437197698789783_" gradientUnits="userSpaceOnUse" x1="1904.7064" y1="1550.1206" x2="1959.2163" y2="2307.8101">
				<stop  offset="0" style="stop-color:#CB236D"/>
				<stop  offset="1" style="stop-color:#4C246D"/>
			</linearGradient>
			<path style="fill:url(#SVGID_00000037662856667780372890000006264437197698789783_);" d="M1932.864,1829.946
				c-10.647,2.596-21.312,2.589-31.998-0.037c-12.929-3.177-22.048-14.745-22.047-27.998l0.001-165.453h76.174l0.001,165.341
				C1954.995,1815.112,1945.857,1826.777,1932.864,1829.946z"/>
			
				<linearGradient id="SVGID_00000065794660582225188720000008028979748955993499_" gradientUnits="userSpaceOnUse" x1="1602.1483" y1="1181.1493" x2="1528.5591" y2="1720.802">
				<stop  offset="0" style="stop-color:#CB236D"/>
				<stop  offset="1" style="stop-color:#4C246D"/>
			</linearGradient>
			<path style="fill:url(#SVGID_00000065794660582225188720000008028979748955993499_);" d="M1133.281,1688.919l819.201-27.118
				c18.678-0.618,34.524-14.092,37.732-32.416c4.488-25.645,8.444-64.038,2.544-103.838c-6.708-45.259-45.638-78.88-91.589-79.973
				c-152.823-3.637-541.871-3.526-756.294,81.292c-22.678,8.971-39.498,28.352-45.241,51.961
				c-5.476,22.516-9.115,52.583-1.961,83.185C1101.473,1678.271,1116.52,1689.473,1133.281,1688.919z"/>
			<path style="fill:#FFFFFF;" d="M1119.092,1651.596c-4.494,0-8.343-3.399-8.806-7.967c-0.135-1.34-3.209-33.072,5.061-63.635
				c6.574-24.282,25.774-43.798,50.113-50.943c45.875-13.461,133.566-36.342,205.427-38.366c4.923-0.121,8.966,3.729,9.101,8.608
				c0.138,4.896-3.716,8.971-8.608,9.109c-69.867,1.955-155.881,24.429-200.934,37.657c-18.465,5.415-33.025,20.191-37.998,38.565
				c-7.427,27.439-4.563,56.93-4.533,57.225c0.489,4.87-3.058,9.213-7.924,9.706
				C1119.689,1651.579,1119.386,1651.596,1119.092,1651.596z"/>
			
				<linearGradient id="SVGID_00000170240065032998006080000009096573082736070822_" gradientUnits="userSpaceOnUse" x1="1409.816" y1="1929.2521" x2="1906.7113" y2="2963.1968">
				<stop  offset="0" style="stop-color:#CB236D"/>
				<stop  offset="0.1342" style="stop-color:#BA236D"/>
				<stop  offset="1" style="stop-color:#4C246D"/>
			</linearGradient>
			<path style="fill:url(#SVGID_00000170240065032998006080000009096573082736070822_);" d="M670.534,1857.318
				c264.659-3.384,1409.552-15.413,1742.12,24.711c28.634,3.455,52,24.402,58.201,52.44c19.651,88.839,59.186,295.219,54.5,499.791
				c-0.638,27.84-21.051,51.33-48.536,56.53l-759.14,143.617h-269.66l-808.874-160.784c-28.511-5.667-49.528-29.815-51.003-58.715
				c-5.257-102.92-13.476-344.412,14.357-499.853C608.414,1882.025,636.829,1857.748,670.534,1857.318z"/>
			<path style="fill:#FFFFFF;" d="M1454.462,2573.422c-0.285,0-0.576-0.026-0.87-0.086l-26.064-5.182
				c-2.397-0.476-3.958-2.803-3.478-5.208c0.48-2.387,2.781-4.005,5.208-3.478l25.831,5.139c0.195-0.026,0.393-0.043,0.593-0.043
				h26.575c2.447,0,4.429,1.981,4.429,4.429s-1.982,4.429-4.429,4.429h-26.575c-0.208,0-0.411-0.017-0.61-0.043
				C1454.873,2573.405,1454.669,2573.422,1454.462,2573.422z M1659.423,2573.422h-26.575c-2.449,0-4.429-1.981-4.429-4.429
				s1.98-4.429,4.429-4.429h26.575c2.447,0,4.429,1.981,4.429,4.429S1661.87,2573.422,1659.423,2573.422z M1570.84,2573.422h-26.575
				c-2.449,0-4.429-1.981-4.429-4.429s1.98-4.429,4.429-4.429h26.575c2.448,0,4.429,1.981,4.429,4.429
				S1573.287,2573.422,1570.84,2573.422z M1721.254,2571.588c-2.09,0-3.946-1.479-4.348-3.607c-0.453-2.405,1.125-4.723,3.53-5.173
				l26.112-4.939c2.426-0.433,4.723,1.124,5.173,3.529c0.454,2.405-1.124,4.723-3.529,5.173l-26.113,4.939
				C1721.803,2571.563,1721.526,2571.588,1721.254,2571.588z M1367.579,2556.155c-0.286,0-0.576-0.026-0.87-0.087l-26.065-5.181
				c-2.396-0.476-3.957-2.812-3.477-5.208c0.476-2.388,2.764-3.954,5.208-3.478l26.064,5.182c2.396,0.476,3.958,2.803,3.478,5.208
				C1371.498,2554.694,1369.651,2556.155,1367.579,2556.155z M1808.292,2555.117c-2.089,0-3.945-1.479-4.347-3.607
				c-0.454-2.405,1.125-4.723,3.53-5.173l26.112-4.939c2.396-0.459,4.719,1.124,5.173,3.529c0.454,2.405-1.125,4.723-3.529,5.173
				l-26.113,4.939C1808.841,2555.091,1808.565,2555.117,1808.292,2555.117z M1280.696,2538.88c-0.286,0-0.576-0.026-0.87-0.087
				l-26.065-5.181c-2.396-0.476-3.957-2.803-3.477-5.208c0.476-2.387,2.785-3.971,5.208-3.478l26.064,5.182
				c2.396,0.476,3.958,2.803,3.478,5.208C1284.614,2537.418,1282.768,2538.88,1280.696,2538.88z M1895.331,2538.655
				c-2.089,0-3.944-1.479-4.347-3.607c-0.454-2.405,1.125-4.723,3.529-5.173l26.112-4.939c2.401-0.416,4.719,1.124,5.173,3.529
				c0.454,2.405-1.125,4.723-3.53,5.173l-26.112,4.939C1895.88,2538.629,1895.604,2538.655,1895.331,2538.655z M1982.37,2522.184
				c-2.089,0-3.945-1.479-4.347-3.607c-0.454-2.405,1.124-4.723,3.529-5.173l26.112-4.939c2.405-0.432,4.719,1.125,5.173,3.529
				c0.453,2.405-1.125,4.723-3.53,5.173l-26.112,4.939C1982.919,2522.158,1982.643,2522.184,1982.37,2522.184z M1193.813,2521.613
				c-0.286,0-0.576-0.026-0.87-0.087l-26.065-5.181c-2.396-0.477-3.957-2.803-3.477-5.208c0.48-2.396,2.768-3.988,5.207-3.478
				l26.065,5.181c2.396,0.477,3.958,2.812,3.478,5.208C1197.731,2520.151,1195.884,2521.613,1193.813,2521.613z M2069.409,2505.721
				c-2.09,0-3.945-1.479-4.346-3.607c-0.455-2.405,1.124-4.723,3.529-5.173l26.113-4.939c2.409-0.467,4.719,1.133,5.172,3.529
				c0.454,2.405-1.124,4.724-3.529,5.173l-26.112,4.939C2069.958,2505.696,2069.681,2505.721,2069.409,2505.721z M1106.93,2504.338
				c-0.286,0-0.576-0.026-0.865-0.087l-26.065-5.173c-2.401-0.476-3.958-2.803-3.481-5.208c0.471-2.387,2.824-4.005,5.203-3.477
				l26.064,5.173c2.401,0.476,3.962,2.803,3.482,5.207C1110.852,2502.875,1109.001,2504.338,1106.93,2504.338z M2156.448,2489.251
				c-2.09,0-3.945-1.479-4.348-3.608c-0.454-2.404,1.125-4.723,3.53-5.173l26.112-4.94c2.414-0.415,4.72,1.125,5.173,3.53
				c0.454,2.405-1.124,4.723-3.529,5.173l-26.113,4.939C2156.997,2489.225,2156.72,2489.251,2156.448,2489.251z M1020.047,2487.071
				c-0.286,0-0.576-0.027-0.87-0.087l-26.065-5.182c-2.396-0.476-3.958-2.803-3.478-5.207c0.48-2.388,2.773-3.953,5.208-3.478
				l26.065,5.181c2.396,0.476,3.958,2.803,3.478,5.208C1023.965,2485.609,1022.118,2487.071,1020.047,2487.071z M2243.487,2472.789
				c-2.09,0-3.946-1.479-4.348-3.608c-0.454-2.404,1.125-4.723,3.53-5.172l26.112-4.94c2.418-0.449,4.719,1.125,5.173,3.53
				c0.454,2.405-1.124,4.723-3.529,5.173l-26.113,4.939C2244.036,2472.762,2243.759,2472.789,2243.487,2472.789z M933.163,2469.804
				c-0.285,0-0.575-0.026-0.869-0.087l-26.065-5.182c-2.396-0.476-3.958-2.803-3.478-5.208c0.477-2.396,2.795-3.97,5.208-3.477
				l26.065,5.181c2.396,0.476,3.958,2.812,3.478,5.208C937.082,2468.342,935.235,2469.804,933.163,2469.804z M2330.525,2456.318
				c-2.089,0-3.945-1.479-4.347-3.607c-0.455-2.405,1.125-4.723,3.53-5.173l26.112-4.939c2.422-0.398,4.723,1.133,5.173,3.529
				c0.455,2.405-1.125,4.723-3.529,5.173l-26.112,4.939C2331.075,2456.292,2330.798,2456.318,2330.525,2456.318z M846.279,2452.529
				c-0.285,0-0.575-0.027-0.869-0.087l-26.065-5.182c-2.396-0.476-3.958-2.803-3.478-5.208c0.48-2.396,2.777-3.979,5.208-3.477
				l26.065,5.181c2.396,0.476,3.958,2.803,3.478,5.208C850.198,2451.067,848.352,2452.529,846.279,2452.529z M2417.564,2439.855
				c-2.089,0-3.945-1.479-4.347-3.607c-0.454-2.405,1.125-4.723,3.529-5.173l26.113-4.939c2.426-0.424,4.723,1.124,5.173,3.529
				c0.454,2.405-1.125,4.723-3.53,5.173l-26.112,4.939C2418.113,2439.83,2417.837,2439.855,2417.564,2439.855z M759.396,2435.262
				c-0.285,0-0.575-0.026-0.869-0.086l-26.065-5.182c-2.396-0.476-3.958-2.803-3.478-5.208c0.476-2.387,2.798-4.005,5.208-3.478
				l26.065,5.182c2.396,0.476,3.958,2.803,3.478,5.208C763.315,2433.8,761.468,2435.262,759.396,2435.262z M672.513,2417.995
				c-0.285,0-0.575-0.026-0.869-0.086l-22.513-4.482l-0.528-10.528c-0.117-2.44,1.769-4.515,4.213-4.628
				c2.383-0.493,4.52,1.756,4.637,4.212l0.178,3.608l15.744,3.131c2.396,0.476,3.958,2.812,3.478,5.208
				C676.432,2416.542,674.585,2417.995,672.513,2417.995z M2460.212,2386.481c-2.423,0-4.399-1.946-4.429-4.377
				c-0.113-8.85-0.299-17.682-0.558-26.489c-0.069-2.448,1.856-4.48,4.299-4.558c2.311,0.069,4.486,1.843,4.56,4.299
				c0.26,8.858,0.446,17.743,0.558,26.644c0.03,2.44-1.929,4.447-4.374,4.481
				C2460.251,2386.481,2460.229,2386.481,2460.212,2386.481z M650.476,2345.157c-2.374,0-4.342-1.886-4.42-4.282
				c-0.29-8.53-0.562-17.414-0.813-26.593c-0.065-2.448,1.865-4.48,4.308-4.551c2.393,0.208,4.481,1.86,4.55,4.309
				c0.251,9.16,0.519,18.027,0.804,26.54c0.082,2.439-1.834,4.489-4.278,4.576C650.58,2345.157,650.528,2345.157,650.476,2345.157z
				 M2456.721,2297.992c-2.314,0-4.264-1.799-4.416-4.143c-0.575-8.885-1.207-17.7-1.895-26.462c-0.19-2.44,1.631-4.568,4.07-4.758
				c2.405-0.294,4.572,1.634,4.762,4.065c0.688,8.798,1.328,17.665,1.903,26.584c0.156,2.44-1.696,4.551-4.135,4.707
				C2456.916,2297.992,2456.817,2297.992,2456.721,2297.992z M648.452,2256.582c-2.422,0-4.404-1.946-4.429-4.377
				c-0.099-8.737-0.173-17.622-0.212-26.609c-0.009-2.448,1.964-4.438,4.411-4.447c0.005,0,0.013,0,0.013,0
				c2.444,0,4.425,1.973,4.434,4.412c0.039,8.971,0.112,17.82,0.212,26.541c0.025,2.447-1.933,4.455-4.377,4.48
				C648.486,2256.582,648.469,2256.582,648.452,2256.582z M2449.044,2209.696c-2.231,0-4.152-1.678-4.398-3.953
				c-0.965-8.902-1.969-17.691-3.015-26.359c-0.29-2.422,1.44-4.628,3.866-4.923c2.474-0.337,4.637,1.436,4.931,3.868
				c1.046,8.702,2.059,17.526,3.023,26.462c0.264,2.431-1.497,4.619-3.928,4.878
				C2449.364,2209.687,2449.204,2209.696,2449.044,2209.696z M648.564,2167.991c-0.021,0-0.043,0-0.069,0
				c-2.444-0.034-4.395-2.051-4.36-4.499c0.135-8.841,0.312-17.725,0.537-26.617c0.06-2.448,2.102-4.239,4.542-4.317
				c2.443,0.06,4.377,2.093,4.317,4.542c-0.225,8.858-0.402,17.717-0.537,26.531
				C652.954,2166.052,650.982,2167.991,648.564,2167.991z M2437.807,2121.804c-2.163,0-4.053-1.583-4.378-3.789
				c-1.319-8.954-2.656-17.708-4-26.238c-0.385-2.413,1.267-4.689,3.681-5.069c2.396-0.363,4.684,1.271,5.065,3.685
				c1.354,8.564,2.699,17.354,4.018,26.341c0.354,2.414-1.319,4.663-3.737,5.026
				C2438.239,2121.787,2438.019,2121.804,2437.807,2121.804z M651.458,2079.433c-0.078,0-0.156,0-0.234-0.009
				c-2.444-0.121-4.321-2.206-4.196-4.654c0.467-8.919,0.99-17.795,1.574-26.592c0.165-2.448,2.271-4.378,4.714-4.126
				c2.44,0.164,4.287,2.275,4.127,4.714c-0.585,8.763-1.107,17.586-1.566,26.471C655.753,2077.6,653.797,2079.433,651.458,2079.433z
				 M2423.364,2034.354c-2.098,0-3.962-1.496-4.351-3.633c-1.679-9.144-3.326-17.847-4.927-26.073
				c-0.467-2.405,1.099-4.732,3.5-5.199c2.396-0.476,4.728,1.107,5.195,3.503c1.609,8.261,3.265,16.998,4.944,26.177
				c0.441,2.405-1.151,4.714-3.556,5.156C2423.896,2034.329,2423.628,2034.354,2423.364,2034.354z M658.4,1991.119
				c-0.16,0-0.325-0.009-0.489-0.026c-2.431-0.268-4.187-2.456-3.919-4.887c0.995-9.014,2.076-17.864,3.244-26.497
				c0.333-2.423,2.561-4.239,4.983-3.79c2.426,0.329,4.126,2.552,3.798,4.983c-1.159,8.564-2.231,17.328-3.218,26.273
				C662.548,1989.44,660.627,1991.119,658.4,1991.119z M2402.053,1951.057c-0.168,0-0.341-0.009-0.518-0.026
				c-8.201-0.96-16.986-1.912-26.342-2.829c-2.435-0.242-4.218-2.413-3.975-4.844c0.238-2.44,2.336-4.075,4.84-3.98
				c9.416,0.934,18.252,1.886,26.506,2.846c2.426,0.286,4.169,2.483,3.883,4.914
				C2406.185,1949.396,2404.272,1951.057,2402.053,1951.057z M2313.83,1943.081c-0.108,0-0.216,0-0.324-0.009
				c-8.517-0.614-17.345-1.211-26.476-1.79c-2.44-0.156-4.295-2.258-4.14-4.698c0.152-2.456,2.275-4.308,4.702-4.144
				c9.157,0.58,18.01,1.177,26.553,1.791c2.44,0.182,4.273,2.301,4.096,4.74C2318.077,1941.299,2316.13,1943.081,2313.83,1943.081z
				 M2225.398,1937.795c-0.078,0-0.151,0-0.229-0.008c-8.638-0.441-17.479-0.865-26.523-1.281c-2.443-0.112-4.333-2.18-4.221-4.62
				c0.112-2.439,2.231-4.386,4.627-4.221c9.062,0.416,17.916,0.839,26.567,1.28c2.443,0.121,4.324,2.206,4.199,4.645
				C2229.697,1935.962,2227.738,1937.795,2225.398,1937.795z M2136.896,1933.92c-0.055,0-0.112,0-0.173,0l-26.545-0.96
				c-2.448-0.086-4.36-2.137-4.273-4.584c0.087-2.432,2.267-4.24,4.576-4.274l26.579,0.96c2.444,0.096,4.351,2.154,4.257,4.594
				C2141.227,1932.043,2139.263,1933.92,2136.896,1933.92z M2048.353,1930.97c-0.047,0-0.09,0-0.134,0l-26.557-0.752
				c-2.444-0.069-4.373-2.102-4.309-4.551c0.065-2.448,1.765-4.247,4.551-4.308l26.575,0.752c2.448,0.078,4.369,2.12,4.299,4.559
				C2052.704,1929.076,2050.736,1930.97,2048.353,1930.97z M1959.796,1928.678c-0.035,0-0.069,0-0.104,0l-26.566-0.588
				c-2.444-0.051-4.386-2.075-4.333-4.524c0.051-2.414,2.024-4.334,4.429-4.334c0.03,0,0.06,0,0.095,0l26.575,0.588
				c2.448,0.061,4.386,2.085,4.33,4.534C1964.164,1926.757,1962.192,1928.678,1959.796,1928.678z M1871.221,1926.896
				c-0.026,0-0.056,0-0.081,0l-26.567-0.459c-2.443-0.043-4.395-2.059-4.356-4.498c0.039-2.422,2.016-4.36,4.429-4.36
				c0.022,0,0.048,0,0.073,0l26.584,0.459c2.448,0.043,4.39,2.068,4.347,4.515
				C1875.603,1924.967,1873.631,1926.896,1871.221,1926.896z M692.856,1926.887c-2.422,0-4.399-1.946-4.429-4.369
				c-0.03-2.448,1.929-4.455,4.373-4.489l26.596-0.32c0.018,0,0.035,0,0.052,0c2.422,0,4.399,1.946,4.429,4.377
				c0.03,2.448-1.929,4.455-4.378,4.481l-26.587,0.32C692.894,1926.887,692.873,1926.887,692.856,1926.887z M781.482,1925.875
				c-2.426,0-4.404-1.955-4.429-4.386c-0.026-2.448,1.937-4.446,4.386-4.473l26.588-0.267c0.017,0,0.03,0,0.043,0
				c2.426,0,4.407,1.955,4.429,4.386c0.021,2.448-1.943,4.446-4.387,4.473l-26.587,0.267
				C781.512,1925.875,781.495,1925.875,781.482,1925.875z M1782.638,1925.503c-0.017,0-0.039,0-0.06,0l-26.566-0.345
				c-2.444-0.035-4.403-2.042-4.373-4.481c0.03-2.431,2.007-4.377,4.429-4.377c0.018,0,0.035,0,0.057,0l26.575,0.345
				c2.448,0.035,4.403,2.042,4.368,4.49C1787.033,1923.557,1785.056,1925.503,1782.638,1925.503z M870.104,1925.019
				c-2.427,0-4.408-1.956-4.429-4.387c-0.021-2.448,1.942-4.446,4.39-4.472l26.588-0.234c0.012,0,0.026,0,0.039,0
				c2.431,0,4.407,1.955,4.429,4.395c0.021,2.44-1.947,4.446-4.39,4.464l-26.588,0.234
				C870.13,1925.019,870.117,1925.019,870.104,1925.019z M1694.06,1924.457c-0.012,0-0.03,0-0.043,0l-26.571-0.251
				c-2.443-0.018-4.411-2.025-4.39-4.465c0.022-2.439,1.998-4.394,4.429-4.394c0.013,0,0.026,0,0.039,0l26.58,0.251
				c2.448,0.026,4.412,2.024,4.385,4.473C1698.463,1922.502,1696.487,1924.457,1694.06,1924.457z M958.717,1924.301
				c-2.43,0-4.411-1.964-4.429-4.395c-0.017-2.448,1.951-4.447,4.399-4.464l26.575-0.19c0.013,0,0.021,0,0.034,0
				c2.431,0,4.411,1.964,4.429,4.395c0.018,2.448-1.951,4.447-4.395,4.464l-26.584,0.19
				C958.739,1924.301,958.726,1924.301,958.717,1924.301z M1605.477,1923.704c-0.008,0-0.021,0-0.03,0l-26.57-0.173
				c-2.444-0.018-4.416-2.007-4.403-4.455c0.013-2.44,1.994-4.403,4.429-4.403c0.009,0,0.018,0,0.026,0l26.578,0.173
				c2.448,0.018,4.417,2.016,4.399,4.464C1609.889,1921.74,1607.907,1923.704,1605.477,1923.704z M1047.33,1923.704
				c-2.435,0-4.416-1.964-4.429-4.403c-0.012-2.448,1.955-4.437,4.403-4.455l26.588-0.147c0.008,0,0.012,0,0.021,0
				c2.435,0,4.416,1.973,4.429,4.412c0.013,2.439-1.964,4.437-4.408,4.446l-26.578,0.147
				C1047.348,1923.704,1047.339,1923.704,1047.33,1923.704z M1135.943,1923.262c-2.439,0-4.42-1.972-4.429-4.411
				c-0.008-2.448,1.964-4.438,4.412-4.447l26.584-0.104c0.004,0,0.012,0,0.012,0c2.444,0,4.425,1.972,4.434,4.411
				c0.009,2.448-1.964,4.438-4.411,4.447l-26.584,0.104C1135.961,1923.262,1135.948,1923.262,1135.943,1923.262z M1516.889,1923.193
				c-0.004,0-0.012,0-0.012,0l-26.579-0.104c-2.448-0.009-4.42-1.998-4.412-4.447c0.009-2.44,1.99-4.411,4.429-4.411
				c0,0,0.013,0,0.018,0l26.575,0.104c2.449,0.009,4.42,1.998,4.411,4.446C1521.31,1921.221,1519.329,1923.193,1516.889,1923.193z
				 M1224.548,1922.959c-2.44,0-4.42-1.972-4.429-4.411c-0.009-2.448,1.968-4.438,4.416-4.447l26.584-0.06
				c2.27-0.182,4.434,1.981,4.438,4.42c0.004,2.448-1.973,4.429-4.42,4.438l-26.575,0.06H1224.548z M1428.298,1922.908
				c-0.005,0-0.005,0-0.005,0l-26.575-0.043c-2.448,0-4.429-1.99-4.425-4.438c0.004-2.44,1.985-4.42,4.429-4.42h0.004l26.578,0.044
				c2.449,0.008,4.426,1.99,4.421,4.437C1432.723,1920.927,1430.741,1922.908,1428.298,1922.908z M1313.14,1922.821
				c-2.444,0-4.425-1.981-4.429-4.42c-0.004-2.448,1.976-4.438,4.425-4.438h26.493c2.444,0,4.473,1.99,4.468,4.429
				c0,2.448-1.938,4.429-4.381,4.429h-26.571H1313.14z"/>
			
				<linearGradient id="SVGID_00000045611569042767610490000013268484422622225537_" gradientUnits="userSpaceOnUse" x1="1643.9235" y1="1912.2241" x2="1537.6281" y2="2754.407">
				<stop  offset="0" style="stop-color:#A737D5"/>
				<stop  offset="1" style="stop-color:#EF497A"/>
			</linearGradient>
			<path style="fill:url(#SVGID_00000045611569042767610490000013268484422622225537_);" d="M1692.29,2747.622h-236.243
				c-30.959,0-57.031-23.034-60.703-53.63l-27.295-227.327c-4.348-36.212,24.063-68.071,60.704-68.071h283.805
				c35.898,0,64.07,30.639,60.897,66.228l-20.269,227.328C1750.387,2723.55,1723.959,2747.622,1692.29,2747.622z"/>
			<defs>
				
					<filter id="Adobe_OpacityMaskFilter_00000018217401018181189940000013270974861648689047_" filterUnits="userSpaceOnUse" x="1416.114" y="2440.163" width="309.08" height="265.648">
					<feFlood  style="flood-color:white;flood-opacity:1" result="back"/>
					<feBlend  in="SourceGraphic" in2="back" mode="normal"/>
				</filter>
			</defs>
			
				<mask maskUnits="userSpaceOnUse" x="1416.114" y="2440.163" width="309.08" height="265.648" id="SVGID_00000044900102223692734530000004352387222282709633_">
				<g style="filter:url(#Adobe_OpacityMaskFilter_00000018217401018181189940000013270974861648689047_);">
					<defs>
						
							<filter id="Adobe_OpacityMaskFilter_00000095305297358264751440000003834203937997444795_" filterUnits="userSpaceOnUse" x="1416.114" y="2440.163" width="309.08" height="265.648">
							<feFlood  style="flood-color:white;flood-opacity:1" result="back"/>
							<feBlend  in="SourceGraphic" in2="back" mode="normal"/>
						</filter>
					</defs>
					
						<mask maskUnits="userSpaceOnUse" x="1416.114" y="2440.163" width="309.08" height="265.648" id="SVGID_00000044900102223692734530000004352387222282709633_">
						<g style="filter:url(#Adobe_OpacityMaskFilter_00000095305297358264751440000003834203937997444795_);">
						</g>
					</mask>
					
						<linearGradient id="SVGID_00000154413045204774306600000008435730009255123869_" gradientUnits="userSpaceOnUse" x1="1416.1136" y1="2572.9868" x2="1725.1934" y2="2572.9868">
						<stop  offset="0" style="stop-color:#FFFFFF"/>
						<stop  offset="1" style="stop-color:#000000"/>
					</linearGradient>
					
						<path style="mask:url(#SVGID_00000044900102223692734530000004352387222282709633_);fill:url(#SVGID_00000154413045204774306600000008435730009255123869_);" d="
						M1663.232,2705.811h-179.807c-23.563,0-43.406-17.531-46.203-40.817l-20.773-173.022
						c-3.309-27.561,18.315-51.809,46.202-51.809h216.008c27.322,0,48.763,23.32,46.349,50.408l-15.427,173.02
						C1707.45,2687.489,1687.336,2705.811,1663.232,2705.811z"/>
				</g>
			</mask>
			
				<linearGradient id="SVGID_00000025406029352531084830000008222983199142086818_" gradientUnits="userSpaceOnUse" x1="1416.1136" y1="2572.9868" x2="1725.1934" y2="2572.9868">
				<stop  offset="0" style="stop-color:#FFFFFF"/>
				<stop  offset="1" style="stop-color:#FFFFFF"/>
			</linearGradient>
			<path style="opacity:0.32;fill:url(#SVGID_00000025406029352531084830000008222983199142086818_);" d="M1663.232,2705.811
				h-179.807c-23.563,0-43.406-17.531-46.203-40.817l-20.773-173.022c-3.309-27.561,18.315-51.809,46.202-51.809h216.008
				c27.322,0,48.763,23.32,46.349,50.408l-15.427,173.02C1707.45,2687.489,1687.336,2705.811,1663.232,2705.811z"/>
		</g>
		<g>
			
				<linearGradient id="SVGID_00000181805879558685969120000006141942493514807461_" gradientUnits="userSpaceOnUse" x1="2619.4856" y1="1950.413" x2="2454.0078" y2="2767.0593">
				<stop  offset="0" style="stop-color:#CE1567"/>
				<stop  offset="1" style="stop-color:#7A1DBC"/>
			</linearGradient>
			<path style="fill:url(#SVGID_00000181805879558685969120000006141942493514807461_);" d="M2971.487,3230.642h-1055.88
				c-8.284,0-15-6.716-15-15v-793.917c0-8.284,6.716-15,15-15h1055.88c8.284,0,15,6.716,15,15v793.917
				C2986.487,3223.926,2979.771,3230.642,2971.487,3230.642z"/>
			
				<linearGradient id="SVGID_00000110447419068664309200000011437576617425368966_" gradientUnits="userSpaceOnUse" x1="2958.666" y1="3453.9915" x2="2070.9399" y2="2422.5884">
				<stop  offset="0" style="stop-color:#A737D5"/>
				<stop  offset="1" style="stop-color:#EF497A"/>
			</linearGradient>
			<path style="fill:url(#SVGID_00000110447419068664309200000011437576617425368966_);" d="M2939.798,3230.642h-1055.88
				c-8.284,0-15-6.716-15-15v-793.917c0-8.284,6.716-15,15-15h1055.88c8.284,0,15,6.716,15,15v793.917
				C2954.798,3223.926,2948.082,3230.642,2939.798,3230.642z"/>
			<path style="fill:#FFFFFF;" d="M2881.571,3209.077h-33.61c-0.925,0-1.673-0.748-1.673-1.673s0.748-1.673,1.673-1.673h33.404
				c0.925,0,1.776,0.748,1.776,1.673S2882.496,3209.077,2881.571,3209.077z M2821.239,3209.077h-33.402
				c-0.925,0-1.673-0.748-1.673-1.673s0.749-1.673,1.673-1.673h33.402c0.925,0,1.673,0.748,1.673,1.673
				S2822.164,3209.077,2821.239,3209.077z M2761.114,3209.077h-33.404c-0.925,0-1.673-0.748-1.673-1.673s0.748-1.673,1.673-1.673
				h33.404c0.925,0,1.673,0.748,1.673,1.673S2762.039,3209.077,2761.114,3209.077z M2700.987,3209.077h-33.402
				c-0.925,0-1.673-0.748-1.673-1.673s0.748-1.673,1.673-1.673h33.402c0.925,0,1.673,0.748,1.673,1.673
				S2701.912,3209.077,2700.987,3209.077z M2640.863,3209.077h-33.404c-0.925,0-1.673-0.748-1.673-1.673s0.748-1.673,1.673-1.673
				h33.404c0.925,0,1.673,0.748,1.673,1.673S2641.787,3209.077,2640.863,3209.077z M2580.736,3209.077h-33.402
				c-0.925,0-1.673-0.748-1.673-1.673s0.749-1.673,1.673-1.673h33.402c0.925,0,1.673,0.748,1.673,1.673
				S2581.661,3209.077,2580.736,3209.077z M2520.611,3209.077h-33.404c-0.925,0-1.673-0.748-1.673-1.673s0.748-1.673,1.673-1.673
				h33.404c0.925,0,1.673,0.748,1.673,1.673S2521.536,3209.077,2520.611,3209.077z M2460.484,3209.077h-33.404
				c-0.925,0-1.673-0.748-1.673-1.673s0.748-1.673,1.673-1.673h33.404c0.925,0,1.673,0.748,1.673,1.673
				S2461.409,3209.077,2460.484,3209.077z M2400.358,3209.077h-33.402c-0.925,0-1.673-0.748-1.673-1.673s0.748-1.673,1.673-1.673
				h33.402c0.925,0,1.673,0.748,1.673,1.673S2401.283,3209.077,2400.358,3209.077z M2340.233,3209.077h-33.404
				c-0.925,0-1.673-0.748-1.673-1.673s0.749-1.673,1.673-1.673h33.404c0.925,0,1.673,0.748,1.673,1.673
				S2341.158,3209.077,2340.233,3209.077z M2280.106,3209.077h-33.402c-0.925,0-1.673-0.748-1.673-1.673s0.748-1.673,1.673-1.673
				h33.402c0.925,0,1.673,0.748,1.673,1.673S2281.031,3209.077,2280.106,3209.077z M2219.981,3209.077h-33.404
				c-0.925,0-1.673-0.748-1.673-1.673s0.748-1.673,1.673-1.673h33.404c0.925,0,1.673,0.748,1.673,1.673
				S2220.906,3209.077,2219.981,3209.077z M2159.855,3209.077h-33.402c-0.925,0-1.673-0.748-1.673-1.673s0.748-1.673,1.673-1.673
				h33.402c0.925,0,1.673,0.748,1.673,1.673S2160.78,3209.077,2159.855,3209.077z M2099.73,3209.077h-33.404
				c-0.925,0-1.673-0.748-1.673-1.673s0.748-1.673,1.673-1.673h33.404c0.925,0,1.673,0.748,1.673,1.673
				S2100.655,3209.077,2099.73,3209.077z M2039.603,3209.077h-33.402c-0.925,0-1.673-0.748-1.673-1.673s0.748-1.673,1.673-1.673
				h33.402c0.925,0,1.673,0.748,1.673,1.673S2040.528,3209.077,2039.603,3209.077z M1979.478,3209.077h-33.404
				c-0.925,0-1.673-0.748-1.673-1.673s0.748-1.673,1.673-1.673h33.404c0.925,0,1.673,0.748,1.673,1.673
				S1980.403,3209.077,1979.478,3209.077z M1920.149,3203.911c-0.248,0-0.502-0.055-0.739-0.173
				c-10.362-5.117-18.826-13.669-23.829-24.084c-0.4-0.833-0.049-1.833,0.784-2.235c0.835-0.396,1.832-0.049,2.232,0.784
				c4.681,9.745,12.599,17.748,22.293,22.535c0.83,0.408,1.17,1.412,0.76,2.242
				C1921.36,3203.568,1920.767,3203.911,1920.149,3203.911z M2907.013,3202.038c-0.57,0-1.126-0.291-1.439-0.817
				c-0.472-0.794-0.212-1.82,0.582-2.294c9.302-5.539,16.573-14.133,20.471-24.202c0.333-0.863,1.304-1.291,2.165-0.954
				c0.861,0.333,1.289,1.301,0.956,2.163c-4.168,10.761-11.938,19.947-21.88,25.868
				C2907.6,3201.963,2907.304,3202.038,2907.013,3202.038z M1892.157,3154.632c-0.925,0-1.673-0.749-1.673-1.673v-33.404
				c0-0.925,0.748-1.673,1.673-1.673s1.673,0.748,1.673,1.673v33.404C1893.83,3153.883,1893.082,3154.632,1892.157,3154.632z
				 M2931.56,3150.7c-0.925,0-1.673-0.748-1.673-1.673v-33.404c0-0.925,0.748-1.673,1.673-1.673s1.673,0.748,1.673,1.673v33.404
				C2933.233,3149.952,2932.484,3150.7,2931.56,3150.7z M1892.157,3094.503c-0.925,0-1.673-0.748-1.673-1.673v-33.401
				c0-0.925,0.748-1.673,1.673-1.673s1.673,0.748,1.673,1.673v33.401C1893.83,3093.755,1893.082,3094.503,1892.157,3094.503z
				 M2931.56,3090.576c-0.925,0-1.673-0.748-1.673-1.673v-33.404c0-0.925,0.748-1.673,1.673-1.673s1.673,0.748,1.673,1.673v33.404
				C2933.233,3089.827,2932.484,3090.576,2931.56,3090.576z M1892.157,3034.379c-0.925,0-1.673-0.749-1.673-1.673v-33.404
				c0-0.925,0.748-1.673,1.673-1.673s1.673,0.748,1.673,1.673v33.404C1893.83,3033.63,1893.082,3034.379,1892.157,3034.379z
				 M2931.56,3030.451c-0.925,0-1.673-0.748-1.673-1.673v-33.404c0-0.925,0.748-1.673,1.673-1.673s1.673,0.749,1.673,1.673v33.404
				C2933.233,3029.702,2932.484,3030.451,2931.56,3030.451z M1892.157,2974.254c-0.925,0-1.673-0.748-1.673-1.673v-33.404
				c0-0.925,0.748-1.673,1.673-1.673s1.673,0.749,1.673,1.673v33.404C1893.83,2973.505,1893.082,2974.254,1892.157,2974.254z
				 M2931.56,2970.323c-0.925,0-1.673-0.748-1.673-1.673v-33.401c0-0.925,0.748-1.673,1.673-1.673s1.673,0.748,1.673,1.673v33.401
				C2933.233,2969.574,2932.484,2970.323,2931.56,2970.323z M1892.157,2914.129c-0.925,0-1.673-0.748-1.673-1.673v-33.404
				c0-0.925,0.748-1.673,1.673-1.673s1.673,0.748,1.673,1.673v33.404C1893.83,2913.38,1893.082,2914.129,1892.157,2914.129z
				 M2931.56,2910.198c-0.925,0-1.673-0.748-1.673-1.673v-33.404c0-0.925,0.748-1.673,1.673-1.673s1.673,0.748,1.673,1.673v33.404
				C2933.233,2909.449,2932.484,2910.198,2931.56,2910.198z M1892.157,2854c-0.925,0-1.673-0.748-1.673-1.673v-33.401
				c0-0.925,0.748-1.673,1.673-1.673s1.673,0.748,1.673,1.673v33.401C1893.83,2853.252,1893.082,2854,1892.157,2854z
				 M2931.56,2850.073c-0.925,0-1.673-0.748-1.673-1.673v-33.404c0-0.925,0.748-1.673,1.673-1.673s1.673,0.748,1.673,1.673v33.404
				C2933.233,2849.324,2932.484,2850.073,2931.56,2850.073z M1892.157,2793.875c-0.925,0-1.673-0.748-1.673-1.673v-33.404
				c0-0.925,0.748-1.673,1.673-1.673s1.673,0.748,1.673,1.673v33.404C1893.83,2793.127,1893.082,2793.875,1892.157,2793.875z
				 M2931.56,2789.948c-0.925,0-1.673-0.748-1.673-1.673v-33.404c0-0.925,0.748-1.673,1.673-1.673s1.673,0.748,1.673,1.673v33.404
				C2933.233,2789.199,2932.484,2789.948,2931.56,2789.948z M1892.157,2733.75c-0.925,0-1.673-0.748-1.673-1.673v-33.404
				c0-0.925,0.748-1.673,1.673-1.673s1.673,0.748,1.673,1.673v33.404C1893.83,2733.002,1893.082,2733.75,1892.157,2733.75z
				 M2931.56,2729.819c-0.925,0-1.673-0.748-1.673-1.673v-33.404c0-0.925,0.748-1.673,1.673-1.673s1.673,0.749,1.673,1.673v33.404
				C2933.233,2729.071,2932.484,2729.819,2931.56,2729.819z M1892.157,2673.622c-0.925,0-1.673-0.748-1.673-1.673v-33.401
				c0-0.925,0.748-1.673,1.673-1.673s1.673,0.748,1.673,1.673v33.401C1893.83,2672.874,1893.082,2673.622,1892.157,2673.622z
				 M2931.56,2669.694c-0.925,0-1.673-0.748-1.673-1.673v-33.404c0-0.925,0.748-1.673,1.673-1.673s1.673,0.748,1.673,1.673v33.404
				C2933.233,2668.946,2932.484,2669.694,2931.56,2669.694z M1892.157,2613.497c-0.925,0-1.673-0.748-1.673-1.673v-33.404
				c0-0.925,0.748-1.673,1.673-1.673s1.673,0.748,1.673,1.673v33.404C1893.83,2612.749,1893.082,2613.497,1892.157,2613.497z
				 M2931.56,2609.57c-0.925,0-1.673-0.749-1.673-1.673v-33.404c0-0.925,0.748-1.673,1.673-1.673s1.673,0.748,1.673,1.673v33.404
				C2933.233,2608.821,2932.484,2609.57,2931.56,2609.57z M1892.157,2553.372c-0.925,0-1.673-0.748-1.673-1.673v-33.404
				c0-0.925,0.748-1.673,1.673-1.673s1.673,0.748,1.673,1.673v33.404C1893.83,2552.624,1893.082,2553.372,1892.157,2553.372z
				 M2931.56,2549.441c-0.925,0-1.673-0.748-1.673-1.673v-33.401c0-0.925,0.748-1.673,1.673-1.673s1.673,0.748,1.673,1.673v33.401
				C2933.233,2548.693,2932.484,2549.441,2931.56,2549.441z M1892.157,2493.248c-0.925,0-1.673-0.748-1.673-1.673v-11.418
				c0-7.689,1.644-15.091,4.884-21.999c0.392-0.84,1.384-1.203,2.225-0.807c0.837,0.395,1.196,1.389,0.804,2.225
				c-3.031,6.464-4.567,13.388-4.567,20.581v11.418C1893.83,2492.499,1893.082,2493.248,1892.157,2493.248z M2931.56,2489.316
				c-0.925,0-1.673-0.749-1.673-1.673v-7.487c0.001-8.402-2.181-16.682-6.31-23.947c-0.458-0.804-0.177-1.823,0.627-2.281
				c0.807-0.461,1.823-0.173,2.281,0.627c4.417,7.768,6.75,16.62,6.748,25.6v7.487
				C2933.233,2488.568,2932.484,2489.316,2931.56,2489.316z M1913.979,2440.417c-0.533,0-1.057-0.255-1.381-0.726
				c-0.523-0.761-0.33-1.804,0.433-2.327c8.65-5.938,18.788-9.075,29.319-9.075h3.238c0.925,0,1.673,0.748,1.673,1.673
				s-0.748,1.673-1.673,1.673h-3.238c-9.851,0-19.336,2.935-27.427,8.487C1914.635,2440.322,1914.306,2440.417,1913.979,2440.417z
				 M2906.418,2438.325c-0.284,0-0.572-0.072-0.835-0.225c-7.328-4.229-15.704-6.464-24.218-6.464h-7.166
				c-0.925,0-1.673-0.749-1.673-1.673s0.749-1.673,1.673-1.673h7.166c9.101,0,18.055,2.392,25.891,6.915
				c0.801,0.461,1.075,1.484,0.613,2.284C2907.559,2438.024,2906.997,2438.325,2906.418,2438.325z M2847.478,2431.636h-33.404
				c-0.925,0-1.673-0.749-1.673-1.673s0.748-1.673,1.673-1.673h33.404c0.925,0,1.673,0.748,1.673,1.673
				S2848.403,2431.636,2847.478,2431.636z M2787.352,2431.636h-33.404c-0.925,0-1.673-0.749-1.673-1.673s0.748-1.673,1.673-1.673
				h33.404c0.925,0,1.673,0.748,1.673,1.673S2788.276,2431.636,2787.352,2431.636z M2727.225,2431.636h-33.402
				c-0.925,0-1.673-0.749-1.673-1.673s0.748-1.673,1.673-1.673h33.402c0.925,0,1.673,0.748,1.673,1.673
				S2728.15,2431.636,2727.225,2431.636z M2667.1,2431.636h-33.404c-0.925,0-1.673-0.749-1.673-1.673s0.748-1.673,1.673-1.673
				h33.404c0.925,0,1.673,0.748,1.673,1.673S2668.025,2431.636,2667.1,2431.636z M2606.973,2431.636h-33.402
				c-0.925,0-1.673-0.749-1.673-1.673s0.749-1.673,1.673-1.673h33.402c0.925,0,1.673,0.748,1.673,1.673
				S2607.898,2431.636,2606.973,2431.636z M2546.848,2431.636h-33.404c-0.925,0-1.673-0.749-1.673-1.673s0.748-1.673,1.673-1.673
				h33.404c0.925,0,1.673,0.748,1.673,1.673S2547.773,2431.636,2546.848,2431.636z M2486.722,2431.636h-33.402
				c-0.925,0-1.673-0.749-1.673-1.673s0.748-1.673,1.673-1.673h33.402c0.925,0,1.673,0.748,1.673,1.673
				S2487.646,2431.636,2486.722,2431.636z M2426.597,2431.636h-33.404c-0.925,0-1.673-0.749-1.673-1.673s0.748-1.673,1.673-1.673
				h33.404c0.925,0,1.673,0.748,1.673,1.673S2427.522,2431.636,2426.597,2431.636z M2366.47,2431.636h-33.402
				c-0.925,0-1.673-0.749-1.673-1.673s0.748-1.673,1.673-1.673h33.402c0.925,0,1.673,0.748,1.673,1.673
				S2367.395,2431.636,2366.47,2431.636z M2306.345,2431.636h-33.404c-0.925,0-1.673-0.749-1.673-1.673s0.748-1.673,1.673-1.673
				h33.404c0.925,0,1.673,0.748,1.673,1.673S2307.27,2431.636,2306.345,2431.636z M2246.219,2431.636h-33.404
				c-0.925,0-1.673-0.749-1.673-1.673s0.748-1.673,1.673-1.673h33.404c0.925,0,1.673,0.748,1.673,1.673
				S2247.144,2431.636,2246.219,2431.636z M2186.092,2431.636h-33.402c-0.925,0-1.673-0.749-1.673-1.673s0.748-1.673,1.673-1.673
				h33.402c0.925,0,1.673,0.748,1.673,1.673S2187.017,2431.636,2186.092,2431.636z M2125.967,2431.636h-33.404
				c-0.925,0-1.673-0.749-1.673-1.673s0.749-1.673,1.673-1.673h33.404c0.925,0,1.673,0.748,1.673,1.673
				S2126.892,2431.636,2125.967,2431.636z M2065.841,2431.636h-33.402c-0.925,0-1.673-0.749-1.673-1.673s0.748-1.673,1.673-1.673
				h33.402c0.925,0,1.673,0.748,1.673,1.673S2066.765,2431.636,2065.841,2431.636z M2005.716,2431.636h-33.404
				c-0.925,0-1.673-0.749-1.673-1.673s0.748-1.673,1.673-1.673h33.404c0.925,0,1.673,0.748,1.673,1.673
				S2006.641,2431.636,2005.716,2431.636z"/>
			
				<linearGradient id="SVGID_00000031915635321256385980000001936434720120952708_" gradientUnits="userSpaceOnUse" x1="2384.1985" y1="2174.9639" x2="2405.4026" y2="2834.405">
				<stop  offset="0" style="stop-color:#2B3582"/>
				<stop  offset="1" style="stop-color:#150E42"/>
			</linearGradient>
			<path style="fill:url(#SVGID_00000031915635321256385980000001936434720120952708_);" d="M2464.148,2563.058h-139.245
				c-3.314,0-6-2.686-6-6V2395.55c0-0.828,0.672-1.5,1.5-1.5h146.245c1.243,0,2.25,1.007,2.25,2.25v162.009
				C2468.898,2560.931,2466.772,2563.058,2464.148,2563.058z"/>
			
				<linearGradient id="SVGID_00000023968171193194327960000014747363865005472435_" gradientUnits="userSpaceOnUse" x1="2385.2861" y1="2378.0054" x2="2393.6753" y2="2638.9043">
				<stop  offset="0" style="stop-color:#CB236D"/>
				<stop  offset="1" style="stop-color:#4C246D"/>
			</linearGradient>
			<circle style="fill:url(#SVGID_00000023968171193194327960000014747363865005472435_);" cx="2389.147" cy="2498.095" r="34.33"/>
		</g>
		<g>
			
				<linearGradient id="SVGID_00000063602441790145664320000001145422145439799457_" gradientUnits="userSpaceOnUse" x1="2944.3835" y1="-21.2408" x2="3019.6704" y2="1293.7745">
				<stop  offset="0" style="stop-color:#FDF53F"/>
				<stop  offset="1" style="stop-color:#D93C65"/>
			</linearGradient>
			
				<circle style="fill:url(#SVGID_00000063602441790145664320000001145422145439799457_);" cx="2986.372" cy="712.163" r="252.624"/>
			<circle style="opacity:0.78;fill:#FFFFFF;" cx="2988.097" cy="711.858" r="233.06"/>
			<g>
				
					<linearGradient id="SVGID_00000029755341886473518750000002775502863325769144_" gradientUnits="userSpaceOnUse" x1="2963.2878" y1="314.4454" x2="3013.4795" y2="1032.1829">
					<stop  offset="0" style="stop-color:#FDF53F"/>
					<stop  offset="1" style="stop-color:#D93C65"/>
				</linearGradient>
				<path style="fill:url(#SVGID_00000029755341886473518750000002775502863325769144_);" d="M2979.524,880.854l-1.678-5.345
					c-5.307-16.911-25.704-29.185-48.499-29.185c-17.415,0-33.836,7.12-42.856,18.58l-3.114,3.957l-8.939-1.258l-32.664-45.964
					l-0.131-10.205l4.429-2.568c8.986-5.21,17.286-16.842,23.372-32.754c6.645-17.375,10.158-38.234,10.158-60.318
					c0-50.321-17.645-85.337-35.074-93.919l-10.066-4.956l32.304-38.121l4.648,0.6c4.836,0.552,9.545,0.901,13.993,0.901
					c0,0,0.005,0,0.008,0c52.446,0,61.276-38.755,61.626-40.401l1.407-6.946l7.169,0.147h71.845l1.405,6.913
					c0.339,1.595,9.161,40.214,61.614,40.213c4.455,0,9.166-0.312,14.001-0.864l4.654-0.547l32.289,38.167l-10.057,4.948
					c-17.429,8.582-35.073,43.588-35.073,93.893c0,22.084,3.513,42.938,10.158,60.31c6.085,15.908,14.385,27.537,23.372,32.747
					l4.428,2.567l-0.129,10.199l-32.68,45.983l-8.941,1.21l-3.095-3.933c-9.02-11.461-25.441-18.581-42.856-18.581
					c-22.825,0-43.244,12.274-48.552,29.184l-1.685,5.367l-8.435,1.056L2979.524,880.854z"/>
				<g style="opacity:0.8;">
					<g>
						<path style="fill:#FFFFFF;" d="M2987.897,874.273c-0.05,0-0.1-0.003-0.149-0.01l-1.697-0.219
							c-0.451-0.058-0.828-0.374-0.965-0.808c-6.375-20.313-29.296-34.499-55.74-34.499c-19.985,0-38.235,8.029-48.82,21.478
							c-0.252,0.319-0.652,0.486-1.056,0.437l-0.219-0.026c-0.327-0.039-0.622-0.214-0.813-0.483l-28.896-40.653
							c-0.137-0.194-0.213-0.424-0.216-0.661l-0.03-2.334c-0.005-0.422,0.217-0.814,0.582-1.026
							c21.969-12.736,37.313-53.694,37.313-99.6c0-23.745-3.905-46.091-11.292-64.624c-7.112-17.84-17.063-30.636-28.018-36.031
							c-0.323-0.159-0.555-0.459-0.628-0.811c-0.073-0.353,0.021-0.719,0.255-0.994l22.026-25.846
							c0.253-0.296,0.635-0.341,1.021-0.298c5.146,0.587,10.166,0.989,14.92,0.989c0.004,0,0.007,0,0.011,0
							c30.899,0,48.014-12.671,56.931-23.21c9.642-11.396,12.033-22.907,12.056-23.021c0.109-0.545,0.588-0.969,1.145-0.969h64.663
							c0.556,0,1.034,0.372,1.145,0.916c0.023,0.115,2.449,11.674,12.127,23.07c8.916,10.5,26.018,23.01,56.86,23.01
							c4.762,0,9.785-0.301,14.931-0.888c0.387-0.044,0.767,0.105,1.019,0.4l22.026,25.748c0.234,0.274,0.329,0.641,0.256,0.994
							c-0.072,0.353-0.304,0.653-0.627,0.812c-10.954,5.393-20.904,18.198-28.018,36.055c-7.387,18.545-11.292,40.9-11.292,64.648
							c0,45.92,15.343,86.887,37.312,99.624c0.365,0.211,0.587,0.603,0.582,1.025l-0.03,2.347c-0.003,0.237-0.078,0.468-0.216,0.661
							l-28.896,40.659c-0.187,0.263-0.475,0.437-0.795,0.481l-0.219,0.029c-0.41,0.059-0.818-0.109-1.074-0.434
							c-10.584-13.448-28.834-21.476-48.82-21.476c-26.474,0-49.417,14.187-55.792,34.5c-0.137,0.436-0.515,0.753-0.969,0.809
							l-1.748,0.219C2987.994,874.27,2987.946,874.273,2987.897,874.273z M2987.083,871.823l0.816,0.106l0.864-0.108
							c6.985-20.892,30.615-35.42,57.788-35.42c20.158,0,38.648,7.934,49.781,21.289l27.908-39.268l0.016-1.308
							c-10.708-6.48-20.303-19.74-27.072-37.437c-7.074-18.493-10.813-40.574-10.813-63.857c0-47.844,16.085-89.447,39.286-102.109
							l-20.668-24.161c-5.018,0.551-9.919,0.831-14.578,0.831c-31.8,0-49.483-13.099-58.717-24.016
							c-8.524-10.077-11.561-20.007-12.34-23.189h-62.813c-0.78,3.182-3.819,13.108-12.344,23.185
							c-9.236,10.916-26.919,24.015-58.713,24.015c-0.003,0-0.007,0-0.01,0c-4.652,0-9.549-0.277-14.567-0.828l-20.672,24.257
							c23.203,12.658,39.289,54.244,39.289,102.062c0,23.281-3.739,45.359-10.813,63.845c-6.769,17.69-16.364,30.944-27.073,37.425
							l0.017,1.295l27.907,39.262c11.133-13.358,29.623-21.293,49.782-21.293C2956.492,836.402,2980.102,850.93,2987.083,871.823z"
							/>
					</g>
				</g>
			</g>
		</g>
	</g>
</g>
</svg>
