<?xml version="1.0" encoding="utf-8"?>
<!-- Generator: Adobe Illustrator 27.5.0, SVG Export Plug-In . SVG Version: 6.00 Build 0)  -->
<svg version="1.1" xmlns="http://www.w3.org/2000/svg" xmlns:xlink="http://www.w3.org/1999/xlink" x="0px" y="0px"
	 viewBox="0 0 3710 3710" style="enable-background:new 0 0 3710 3710;" xml:space="preserve">
<g id="Illustration">
	<g>
		<linearGradient id="SVGID_1_" gradientUnits="userSpaceOnUse" x1="3581.3586" y1="4069.3867" x2="1126.1362" y2="1020.1545">
			<stop  offset="0" style="stop-color:#B37CFF"/>
			<stop  offset="1" style="stop-color:#F895E7"/>
		</linearGradient>
		<path style="opacity:0.3;fill:url(#SVGID_1_);" d="M2905.911,2866.88c-56.396,59.371-109.756,97.658-151.916,127.908
			c-495.575,355.581-1081.973,251.931-1206.599,226.618c-184.033-37.378-539.766-109.629-796.954-412.078
			c-389.104-457.579-328.515-1178.481-26.699-1654.359c55.207-87.046,346.825-570.172,939.538-647.651
			c358.704-46.889,776.837,47.681,1079.637,301.367C3378.524,1341.197,3333.276,2416.964,2905.911,2866.88z"/>
		<g>
			
				<linearGradient id="SVGID_00000139258581256098860850000001944476209795992206_" gradientUnits="userSpaceOnUse" x1="3656.9456" y1="1407.474" x2="2302.7771" y2="2895.9414" gradientTransform="matrix(0.9909 0.1349 -0.1349 0.9909 -207.4566 9.2423)">
				<stop  offset="0" style="stop-color:#B37CFF"/>
				<stop  offset="1" style="stop-color:#F895E7"/>
			</linearGradient>
			<path style="fill:url(#SVGID_00000139258581256098860850000001944476209795992206_);" d="M2355.357,3161.769
				c-4.773-0.65-9.046-3.165-11.917-7.034c-41.828-56.372-345.975-497.524,58.803-900.775
				c384.262-382.811,558.445-461.411,581.61-686.329c2.705-26.266,38.214-32.57,49.898-8.891
				c87.313,176.968,223.35,589.922-226.835,860.968c-496.602,298.992-455.903,626.748-431.887,719.889
				C2378.204,3151.908,2367.954,3163.484,2355.357,3161.769L2355.357,3161.769z"/>
			
				<linearGradient id="SVGID_00000049203847075325270890000016707942479446281618_" gradientUnits="userSpaceOnUse" x1="3970.5813" y1="1692.7831" x2="2616.3955" y2="3181.2693" gradientTransform="matrix(0.9909 0.1349 -0.1349 0.9909 -207.4566 9.2423)">
				<stop  offset="0" style="stop-color:#B37CFF"/>
				<stop  offset="1" style="stop-color:#F895E7"/>
			</linearGradient>
			<path style="fill:url(#SVGID_00000049203847075325270890000016707942479446281618_);" d="M2416.946,3170.153
				c-11.3-1.538-20.252-10.252-21.994-21.522c-11.855-76.712-40.968-363.366,170.213-439.381
				c232.479-83.681,420.166,132.832,591.055-36.632c8.991-8.917,24.111-1.147,21.965,11.334
				c-15.219,88.522-82.96,293.563-384.379,334.819c-322.623,44.159-358.929,81.17-352.415,127.081
				C2443.4,3160.006,2431.112,3172.081,2416.946,3170.153L2416.946,3170.153z"/>
			<path style="opacity:0.47;fill:#FFFFFF;" d="M2972.615,1796.947c-3.94,16.689-9.18,32.343-15.434,47.888
				c-6.14,15.526-13.211,30.666-20.92,45.478c-15.263,29.729-33.579,57.849-53.632,84.638
				c-40.378,53.448-89.229,100.396-143.073,140.21c-26.854,19.792-55.563,37.984-83.943,54.42
				c-27.631,16.027-54.218,33.958-79.684,53.376c-50.968,38.83-97.179,83.89-137.99,133.292
				c-81.302,98.884-139.003,218.217-157.998,345.271c-9.694,63.381-9.809,128.277-1.08,192.188
				c8.628,63.993,26.868,126.656,50.921,187.073c1.3,3.221-0.256,6.885-3.477,8.185c-3.094,1.25-6.62-0.184-8.045-3.151
				c-28.125-59.705-49.14-123.179-60.773-188.72c-5.945-32.736-9.464-65.984-10.468-99.363
				c-0.801-33.371,0.605-66.882,4.812-100.086c8.081-66.481,26.834-131.604,53.843-192.906
				c27.087-61.333,62.869-118.621,104.667-170.878c41.784-52.331,90.261-99.149,143.268-140.053
				c26.555-20.405,54.324-39.284,83.309-56.243c28.375-16.283,55.312-32.826,81.404-51.656
				c52.077-37.198,100.203-80.14,141.604-129.148c20.962-24.289,39.938-50.286,57.28-77.387
				c16.997-27.155,32.883-55.805,44.316-85.432l0.149-0.385c1.139-2.958,4.464-4.43,7.422-3.289
				C2971.804,1791.318,2973.268,1794.197,2972.615,1796.947z"/>
			<path style="opacity:0.47;fill:#FFFFFF;" d="M2403.553,3118.127c0.986-2.776,0.678-5.357,0.588-8.011l-0.245-7.906l-0.184-15.805
				c0.019-10.533,0.246-21.065,0.706-31.59c0.937-21.047,2.73-42.071,5.546-62.989c5.742-41.766,15.206-83.413,32.066-122.638
				c16.672-38.953,41.92-76.18,78.563-100.502c18.254-11.939,38.846-20.441,60.186-24.76c21.323-4.493,43.233-5.161,64.661-3.279
				c83.982,9.739,166.3,25.842,248.833,38.917c41.111,6.129,82.802,11.601,123.163,6.082c10.031-1.47,19.913-3.66,29.511-6.744
				c9.5-3.314,18.834-7.198,27.553-12.308c17.552-10.022,32.985-23.721,46.775-38.925l0.043-0.046c1.9-2.094,5.136-2.253,7.23-0.353
				c2.066,1.873,2.245,5.053,0.427,7.149c-13.975,16.092-29.945,30.966-48.608,42.166c-9.266,5.693-19.264,10.132-29.459,13.919
				c-10.288,3.559-20.867,6.136-31.539,7.93c-42.985,6.297-85.598,0.942-127.18-4.758c-41.702-5.934-82.879-13.665-124.202-20.352
				c-41.193-6.706-82.868-13.187-123.891-17.998c-20.251-1.961-40.728-1.484-60.471,2.499c-19.776,3.82-38.68,11.451-55.594,22.285
				c-34.096,21.712-58.836,56.262-75.635,93.663c-16.995,37.587-27.094,78.283-33.498,119.342
				c-3.155,20.569-5.311,41.314-6.619,62.118c-0.646,10.402-1.063,20.821-1.271,31.243l-0.105,15.63l0.099,7.806
				c0.069,2.583-0.05,5.238,1.223,7.693c1.207,2.331,0.298,5.199-2.032,6.408c-2.331,1.208-5.2,0.298-6.409-2.032
				c-0.627-1.212-0.682-2.571-0.263-3.764L2403.553,3118.127z"/>
		</g>
		<g>
			<g>
				
					<linearGradient id="SVGID_00000109745339223173435420000017299873636038209426_" gradientUnits="userSpaceOnUse" x1="5352.0122" y1="-1425.2772" x2="221.118" y2="2948.1001">
					<stop  offset="0" style="stop-color:#CB236D"/>
					<stop  offset="1" style="stop-color:#4C246D"/>
				</linearGradient>
				<path style="fill:url(#SVGID_00000109745339223173435420000017299873636038209426_);" d="M1964.757,497.397
					c-126.53-0.998-254.16,19.068-367.078,65.919c-262.853,109.062-485.929,397.641-398.631,692.407
					c28.359,95.755,13.461,201.396,108.853,243.008c51.613,22.515,192.169,35.917,245.611,18.174
					c142.041-47.159,235.406-176.231,158.155-319.363c-24.739-45.837-56.759-87.71-78.121-135.214
					c-21.363-47.504-31.099-103.889-9.319-151.207c42.752-92.878,184.776-122.405,276.876-119.618
					c108.706,3.289,207.205,57.055,265.703,149.292c72.907,114.955,91.376,254.777,80.706,388.215
					c-11.417,142.782-71.62,251.819-161.844,361.353c-77.678,94.303-163.219,184.824-214.847,295.556
					c-47.396,101.657-62.885,214.295-65.026,325.509c-0.415,21.555-107.614,224.695-107.154,286.754
					c0.065,8.767,121.582,37.813,130.349,37.911c45.75,0.511,175.338,1.96,223.035,2.493c9.809,0.109,17.894-7.73,18.004-17.539
					c3.395-301.934,96.266-589.793,331.363-792.573c85.544-73.785,177.671-133.871,244.188-227.003
					c94.806-132.74,141.578-263.374,128.08-427.197c-12.328-149.621-61.595-299.323-159.123-415.411
					c-104.823-124.771-258.243-202.688-417.696-236.312C2122.482,506.871,2043.834,498.021,1964.757,497.397z"/>
				
					<linearGradient id="SVGID_00000142163189558051027910000013822701299051861639_" gradientUnits="userSpaceOnUse" x1="6100.3662" y1="-547.3034" x2="969.4636" y2="3826.0811">
					<stop  offset="0" style="stop-color:#CB236D"/>
					<stop  offset="1" style="stop-color:#4C246D"/>
				</linearGradient>
				<path style="fill:url(#SVGID_00000142163189558051027910000013822701299051861639_);" d="M2198.091,2977.058
					c0,138.842-76.96,261.678-215.802,261.678c-29.993,0-132.005,0.276-158.675-9.358c-96.789-34.967-97.137-109.326-97.137-218.175
					c0-138.842,46.884-275.391,185.726-275.391C2051.045,2735.811,2198.091,2838.216,2198.091,2977.058z"/>
			</g>
			<g>
				
					<linearGradient id="SVGID_00000114765959851555933260000014214235562001912475_" gradientUnits="userSpaceOnUse" x1="562.0994" y1="2737.6533" x2="5016.2803" y2="-1979.1356">
					<stop  offset="0" style="stop-color:#CB236D"/>
					<stop  offset="1" style="stop-color:#4C246D"/>
				</linearGradient>
				<path style="fill:url(#SVGID_00000114765959851555933260000014214235562001912475_);" d="M1844.53,465.758
					c-126.53-0.998-254.16,19.067-367.078,65.919c-262.853,109.062-485.928,397.641-398.631,692.407
					c28.359,95.755,93.928,216.289,189.321,257.902c51.613,22.515,111.701,21.023,165.143,3.28
					c142.041-47.159,235.406-176.231,158.155-319.363c-24.739-45.837-56.759-87.71-78.121-135.214
					c-21.362-47.504-31.099-103.889-9.319-151.208c42.752-92.879,184.776-122.405,276.876-119.618
					c108.706,3.289,207.205,57.055,265.703,149.292c72.907,114.955,91.376,254.777,80.706,388.215
					c-11.417,142.782-71.62,251.819-161.844,361.353c-77.678,94.303-163.219,184.824-214.847,295.556
					c-47.397,101.657-62.885,214.295-65.026,325.509c-0.415,21.555,6.842,246.657,7.302,308.717
					c0.065,8.767,7.127,15.85,15.894,15.948c45.75,0.511,175.338,1.96,223.035,2.493c9.809,0.109,17.894-7.73,18.004-17.539
					c3.395-301.934,96.266-589.793,331.363-792.573c85.544-73.785,177.671-133.871,244.188-227.002
					c94.806-132.74,141.578-263.374,128.08-427.197c-12.328-149.621-61.595-299.323-159.123-415.411
					c-104.823-124.771-258.243-202.688-417.696-236.312C2002.254,475.232,1923.607,466.382,1844.53,465.758z"/>
				
					<linearGradient id="SVGID_00000093881568158459080180000017170423614918689421_" gradientUnits="userSpaceOnUse" x1="1367.6965" y1="3498.3984" x2="5821.8916" y2="-1218.4058">
					<stop  offset="0" style="stop-color:#CB236D"/>
					<stop  offset="1" style="stop-color:#4C246D"/>
				</linearGradient>
				
					<circle style="fill:url(#SVGID_00000093881568158459080180000017170423614918689421_);" cx="1857.645" cy="2979.564" r="251.396"/>
			</g>
			<g>
				<path style="fill:#FFFFFF;" d="M1162.034,1195.209c-1.479,0-2.813-1.024-3.146-2.53
					c-17.618-79.547-20.205-204.117,67.52-345.824c85.623-138.313,205.728-230.863,356.984-275.074
					c161.682-47.261,353.649-37.144,570.569,30.071c1.701,0.528,2.655,2.334,2.127,4.037c-0.528,1.703-2.334,2.653-4.037,2.127
					c-215.692-66.835-406.405-76.941-566.849-30.043c-149.68,43.753-268.549,135.361-353.307,272.278
					c-86.584,139.865-84.066,262.654-66.708,341.034c0.386,1.739-0.712,3.462-2.453,3.846
					C1162.499,1195.185,1162.266,1195.209,1162.034,1195.209z"/>
			</g>
			<g>
				<path style="fill:#FFFFFF;" d="M1214.916,1323.198c-0.995,0-1.976-0.459-2.609-1.323c-0.763-1.044-18.877-26.073-35.724-70.16
					c-0.636-1.665,0.197-3.529,1.861-4.165c1.668-0.635,3.529,0.197,4.165,1.861c16.541,43.286,34.726,68.41,34.908,68.658
					c1.05,1.438,0.736,3.457-0.702,4.509C1216.243,1322.996,1215.575,1323.198,1214.916,1323.198z"/>
			</g>
			<g>
				<path style="fill:#FFFFFF;" d="M1941.765,2816.625c-0.49,0-0.988-0.112-1.456-0.35c-25.757-13.066-53.57-19.69-82.664-19.69
					c-1.782,0-3.227-1.445-3.227-3.227s1.445-3.227,3.227-3.227c30.118,0,58.914,6.861,85.583,20.391
					c1.589,0.805,2.224,2.747,1.417,4.336C1944.076,2815.979,1942.941,2816.625,1941.765,2816.625z"/>
			</g>
			<g>
				<path style="fill:#FFFFFF;" d="M1753.532,3137.195c-0.621,0-1.249-0.179-1.803-0.554
					c-52.296-35.327-83.517-94.049-83.517-157.078c0-69.874,38.27-133.852,99.872-166.965c1.567-0.846,3.524-0.253,4.369,1.315
					c0.843,1.57,0.255,3.526-1.315,4.369c-59.507,31.986-96.473,93.786-96.473,161.281c0,60.883,30.159,117.605,80.677,151.733
					c1.476,0.996,1.864,3.001,0.866,4.479C1755.586,3136.697,1754.568,3137.195,1753.532,3137.195z"/>
			</g>
		</g>
		<g>
			<g>
				<g style="opacity:0.3;">
					
						<linearGradient id="SVGID_00000063634423835767527180000002280102131544569505_" gradientUnits="userSpaceOnUse" x1="-1163.262" y1="1945.1176" x2="-729.3182" y2="1945.1176" gradientTransform="matrix(-0.5449 0.8385 0.8385 0.5449 -1381.6563 749.8729)">
						<stop  offset="0" style="stop-color:#B37CFF"/>
						<stop  offset="1" style="stop-color:#F895E7"/>
					</linearGradient>
					<path style="fill:url(#SVGID_00000063634423835767527180000002280102131544569505_);" d="M1021.376,936.049
						c-2.644,3.267-7.436,3.769-10.701,1.125c-6.345-5.137-13.006-10.075-19.801-14.677c-3.438-2.328-4.366-6.975-2.114-10.441
						c0.027-0.041,0.053-0.082,0.081-0.125c2.356-3.479,7.087-4.388,10.566-2.031c7.151,4.844,14.165,10.042,20.844,15.45
						c3.054,2.472,3.691,6.825,1.596,10.049C1021.703,935.622,1021.547,935.84,1021.376,936.049z M956.266,902.368
						c-7.355-3.631-14.935-6.981-22.536-9.961c-3.909-1.532-5.84-5.946-4.307-9.859c1.552-3.921,5.949-5.839,9.862-4.306
						c7.997,3.134,15.976,6.66,23.715,10.479c3.767,1.86,5.314,6.423,3.454,10.19c-0.135,0.274-0.285,0.536-0.447,0.785
						C963.935,902.886,959.76,904.093,956.266,902.368z M895.549,880.432c-7.957-1.898-16.092-3.472-24.186-4.679
						c-4.155-0.62-7.022-4.492-6.402-8.647c0.624-4.151,4.491-7.019,8.647-6.402c8.523,1.271,17.093,2.929,25.47,4.928
						c4.087,0.975,6.609,5.078,5.637,9.165c-0.208,0.871-0.558,1.672-1.02,2.382C901.991,879.801,898.764,881.2,895.549,880.432z
						 M831.451,872.627c-8.19-0.072-16.477,0.214-24.633,0.843c-4.189,0.322-7.848-2.812-8.171-7c-0.319-4.189,2.815-7.844,7-8.171
						c8.589-0.662,17.313-0.96,25.932-0.888c4.201,0.036,7.579,3.472,7.542,7.673c-0.013,1.503-0.46,2.901-1.223,4.075
						C836.529,871.265,834.148,872.648,831.451,872.627z M767.211,879.296c-7.981,1.745-16.003,3.857-23.836,6.28
						c-4.016,1.239-8.275-1.009-9.516-5.023c-1.242-4.017,1.008-8.276,5.024-9.514c8.241-2.548,16.681-4.77,25.079-6.607
						c4.104-0.899,8.159,1.701,9.056,5.807c0.453,2.068,0.017,4.124-1.052,5.77C770.913,877.629,769.247,878.851,767.211,879.296z
						 M706.048,900.012c-7.409,3.472-14.76,7.305-21.85,11.395c-3.639,2.099-8.293,0.85-10.391-2.788
						c-2.1-3.64-0.853-8.292,2.788-10.393c7.461-4.304,15.201-8.339,22.997-11.993c3.805-1.782,8.333-0.143,10.117,3.661
						c1.158,2.471,0.871,5.248-0.514,7.38C708.448,898.425,707.383,899.388,706.048,900.012z M534.584,1124.541
						c-4.154-0.626-7.015-4.502-6.388-8.658c1.285-8.511,2.96-17.082,4.977-25.471c0.982-4.086,5.091-6.601,9.176-5.618
						c4.084,0.981,6.599,5.089,5.617,9.174c-1.916,7.966-3.504,16.104-4.723,24.186c-0.167,1.109-0.565,2.124-1.139,3.008
						C540.528,1123.586,537.631,1125.001,534.584,1124.541z M651.032,933.75c-6.448,5.03-12.756,10.401-18.747,15.967
						c-3.081,2.859-7.895,2.681-10.753-0.398c-2.861-3.08-2.666-7.88,0.399-10.752c6.31-5.86,12.953-11.517,19.744-16.813
						c3.313-2.584,8.093-1.994,10.678,1.32c2.05,2.627,2.102,6.179,0.382,8.825C652.287,932.589,651.717,933.215,651.032,933.75z
						 M550.15,1060.088c-3.908-1.54-5.828-5.959-4.287-9.869c3.158-8.006,6.703-15.982,10.533-23.707
						c1.852-3.776,6.432-5.301,10.196-3.436c3.763,1.866,5.301,6.431,3.436,10.197c-3.64,7.342-7.01,14.921-10.009,22.531
						c-0.191,0.485-0.429,0.939-0.703,1.36C557.386,1060.133,553.572,1061.438,550.15,1060.088z M604.945,978.93
						c-5.156,6.342-10.107,12.99-14.714,19.763c-2.362,3.476-7.093,4.376-10.569,2.013c-3.428-2.332-4.351-6.972-2.102-10.433
						c0.029-0.045,0.059-0.091,0.091-0.134c4.847-7.132,10.059-14.131,15.484-20.807c2.653-3.259,7.444-3.754,10.704-1.103
						c3.045,2.475,3.676,6.821,1.584,10.04C605.278,978.494,605.117,978.715,604.945,978.93z"/>
					
						<linearGradient id="SVGID_00000106141444388973250770000007212000532183141269_" gradientUnits="userSpaceOnUse" x1="-708.2234" y1="1830.8217" x2="-682.8798" y2="1830.8217" gradientTransform="matrix(-0.5449 0.8385 0.8385 0.5449 -1381.6563 749.8729)">
						<stop  offset="0" style="stop-color:#B37CFF"/>
						<stop  offset="1" style="stop-color:#F895E7"/>
					</linearGradient>
					<path style="fill:url(#SVGID_00000106141444388973250770000007212000532183141269_);" d="M538.945,1174.49
						c0.816-1.256,1.273-2.765,1.221-4.377c-0.124-3.921-0.166-7.909-0.132-11.856c0.04-4.2-3.336-7.64-7.536-7.677
						c-4.202-0.041-7.645,3.334-7.677,7.538c-0.04,4.151,0.007,8.345,0.136,12.471c0.132,4.199,3.644,7.498,7.841,7.366
						C535.389,1177.874,537.634,1176.508,538.945,1174.49z"/>
				</g>
				<g style="opacity:0.3;">
					
						<linearGradient id="SVGID_00000173845272096112258500000009466333767477183160_" gradientUnits="userSpaceOnUse" x1="-576.6776" y1="2024.4797" x2="-559.2866" y2="2024.4797" gradientTransform="matrix(-0.5449 0.8385 0.8385 0.5449 -1381.6563 749.8729)">
						<stop  offset="0" style="stop-color:#B37CFF"/>
						<stop  offset="1" style="stop-color:#F895E7"/>
					</linearGradient>
					<path style="fill:url(#SVGID_00000173845272096112258500000009466333767477183160_);" d="M636.176,1385.071
						c2.001-3.079,1.529-7.24-1.281-9.782c-2.909-2.63-5.813-5.365-8.628-8.13c-2.999-2.945-7.815-2.901-10.759,0.097
						c-2.956,3.011-2.899,7.816,0.097,10.759c2.964,2.91,6.021,5.792,9.084,8.561c3.117,2.818,7.927,2.575,10.746-0.541
						C635.713,1385.729,635.959,1385.406,636.176,1385.071z"/>
					
						<linearGradient id="SVGID_00000086655265965932394540000002014063845837307825_" gradientUnits="userSpaceOnUse" x1="-1002.542" y1="2222.2979" x2="-555.5696" y2="2222.2979" gradientTransform="matrix(-0.5449 0.8385 0.8385 0.5449 -1381.6563 749.8729)">
						<stop  offset="0" style="stop-color:#B37CFF"/>
						<stop  offset="1" style="stop-color:#F895E7"/>
					</linearGradient>
					<path style="fill:url(#SVGID_00000086655265965932394540000002014063845837307825_);" d="M1074.892,1339.502
						c-2.458,3.407-7.215,4.176-10.623,1.714c-3.406-2.46-4.169-7.207-1.714-10.621c4.682-6.486,9.16-13.272,13.365-20.245
						c2.147-3.588,6.847-4.755,10.445-2.585c3.598,2.17,4.755,6.845,2.587,10.444c-1.822,3.021-3.687,6-5.594,8.936
						C1080.637,1331.333,1077.789,1335.491,1074.892,1339.502z M1097.907,1285.309c-3.857-1.662-5.637-6.138-3.973-9.996
						c3.191-7.409,6.106-15.03,8.659-22.657c1.32-3.984,5.644-6.133,9.63-4.8c3.982,1.333,6.131,5.645,4.797,9.628
						c-2.688,8.03-5.754,16.054-9.115,23.849c-0.174,0.404-0.38,0.786-0.611,1.143
						C1105.311,1285.527,1101.362,1286.798,1097.907,1285.309z M1048.382,1371.375c-5.846,6.121-12.034,12.077-18.394,17.699
						c-3.148,2.783-7.956,2.486-10.741-0.662c-2.782-3.148-2.481-7.951,0.663-10.739c6.042-5.338,11.917-10.992,17.467-16.806
						c2.903-3.038,7.718-3.15,10.758-0.248c2.688,2.567,3.083,6.632,1.129,9.64
						C1049.009,1370.65,1048.716,1371.025,1048.382,1371.375z M1118.575,1223.421c-4.129-0.774-6.85-4.751-6.074-8.88
						c1.486-7.916,2.65-15.99,3.462-23.996c0.422-4.184,4.153-7.226,8.336-6.801c4.18,0.423,7.224,4.154,6.801,8.334
						c-0.855,8.432-2.081,16.935-3.645,25.27c-0.19,1.007-0.567,1.931-1.094,2.741
						C1124.732,1222.596,1121.696,1224.006,1118.575,1223.421z M997.136,1414.311c-7.044,4.683-14.389,9.129-21.829,13.216
						c-3.682,2.023-8.305,0.679-10.329-3.002c-2.026-3.684-0.679-8.309,3.003-10.332c7.067-3.884,14.043-8.106,20.732-12.554
						c3.5-2.326,8.223-1.375,10.548,2.125c1.733,2.608,1.646,5.893,0.043,8.36C998.755,1412.969,998.027,1413.719,997.136,1414.311z
						 M937.715,1444.967c-7.917,3.037-16.054,5.774-24.186,8.138c-4.036,1.171-8.256-1.148-9.43-5.183
						c-1.173-4.041,1.147-8.26,5.184-9.428c7.726-2.247,15.459-4.848,22.983-7.733c3.923-1.505,8.323,0.456,9.828,4.379
						c0.906,2.364,0.554,4.902-0.728,6.874C940.521,1443.315,939.273,1444.37,937.715,1444.967z M873.023,1461.946
						c-8.395,1.241-16.936,2.141-25.382,2.677c-4.195,0.265-7.807-2.918-8.074-7.111c-0.266-4.199,2.919-7.808,7.111-8.074
						c8.027-0.507,16.141-1.365,24.12-2.545c4.156-0.615,8.025,2.257,8.638,6.412c0.283,1.91-0.17,3.756-1.144,5.256
						C877.143,1460.329,875.271,1461.613,873.023,1461.946z M806.169,1464.408c-8.462-0.624-16.996-1.617-25.364-2.953
						c-4.149-0.662-6.977-4.562-6.314-8.712c0.661-4.142,4.564-6.974,8.713-6.312c7.944,1.268,16.047,2.21,24.086,2.803
						c4.19,0.309,7.336,3.955,7.026,8.145c-0.098,1.324-0.528,2.542-1.203,3.581C811.65,1463.212,809.038,1464.619,806.169,1464.408
						z M740.374,1452.114c-8.097-2.467-16.195-5.314-24.073-8.463c-3.902-1.56-5.802-5.988-4.242-9.889
						c1.556-3.889,5.985-5.801,9.887-4.241c7.483,2.992,15.175,5.695,22.866,8.04c4.018,1.223,6.283,5.476,5.058,9.494
						c-0.213,0.7-0.517,1.347-0.897,1.932C747.172,1451.758,743.693,1453.126,740.374,1452.114z M678.948,1425.7
						c-5.428-3.073-10.828-6.353-16.048-9.745c-1.891-1.229-3.761-2.474-5.616-3.738c-3.471-2.365-4.466-7.1-2.003-10.569
						c2.363-3.473,7.097-4.371,10.571-2.005c1.762,1.2,3.542,2.387,5.339,3.554c4.964,3.226,10.094,6.342,15.255,9.265
						c3.656,2.069,4.941,6.713,2.87,10.368c-0.078,0.137-0.159,0.272-0.244,0.403C686.898,1426.578,682.465,1427.693,678.948,1425.7
						z"/>
					
						<linearGradient id="SVGID_00000031899223432170131710000016183760727621030276_" gradientUnits="userSpaceOnUse" x1="-1047.0955" y1="2316.5098" x2="-1022.0751" y2="2316.5098" gradientTransform="matrix(-0.5449 0.8385 0.8385 0.5449 -1381.6563 749.8729)">
						<stop  offset="0" style="stop-color:#B37CFF"/>
						<stop  offset="1" style="stop-color:#F895E7"/>
					</linearGradient>
					<path style="fill:url(#SVGID_00000031899223432170131710000016183760727621030276_);" d="M1131.212,1154.851
						c0.824-1.268,1.279-2.792,1.222-4.416c-0.15-4.116-0.389-8.307-0.713-12.456c-0.326-4.19-3.985-7.322-8.174-6.995
						c-4.189,0.327-7.322,3.982-6.995,8.174c0.306,3.941,0.533,7.922,0.677,11.83c0.151,4.197,3.678,7.478,7.878,7.326
						C1127.68,1158.219,1129.909,1156.857,1131.212,1154.851z"/>
				</g>
				<g>
					
						<linearGradient id="SVGID_00000145742394219732392150000000398908072194085049_" gradientUnits="userSpaceOnUse" x1="481.782" y1="1923.111" x2="1148.3945" y2="448.4851">
						<stop  offset="0" style="stop-color:#B37CFF"/>
						<stop  offset="1" style="stop-color:#F895E7"/>
					</linearGradient>
					<path style="fill:url(#SVGID_00000145742394219732392150000000398908072194085049_);" d="M1035.787,1065.943
						c-0.464-1.445-1.791-2.437-3.308-2.47l-43.266-0.951c-10.394-17.333-23.626-33.133-39.461-46.617l6.174-42.806
						c0.216-1.502-0.544-2.975-1.893-3.669l-46.155-23.754c-1.349-0.695-2.99-0.457-4.085,0.592l-31.246,29.903
						c-20.176-5.049-40.725-6.635-60.87-5.019l-25.919-34.656c-0.909-1.214-2.488-1.719-3.932-1.256l-49.434,15.84
						c-1.444,0.463-2.437,1.792-2.47,3.308l-0.951,43.266c-17.333,10.393-33.134,23.625-46.618,39.461l-42.806-6.174
						c-1.502-0.217-2.975,0.543-3.669,1.892l-23.755,46.156c-0.694,1.349-0.456,2.989,0.593,4.085l29.903,31.247
						c-5.049,20.176-6.635,40.725-5.019,60.87l-34.657,25.919c-1.215,0.908-1.72,2.488-1.256,3.932l15.84,49.434
						c0.463,1.444,1.792,2.436,3.307,2.47l43.267,0.951c10.393,17.333,23.625,33.133,39.461,46.617l-6.174,42.806
						c-0.217,1.501,0.543,2.975,1.892,3.669l46.156,23.755c1.349,0.694,2.99,0.456,4.085-0.593l31.247-29.903
						c20.176,5.049,40.725,6.635,60.87,5.019l25.919,34.656c0.908,1.215,2.487,1.72,3.932,1.257l49.434-15.84
						c1.444-0.463,2.436-1.791,2.469-3.308l0.951-43.267c17.333-10.393,33.133-23.626,46.618-39.461l42.806,6.174
						c1.5,0.216,2.974-0.543,3.669-1.892l23.754-46.156c0.694-1.349,0.457-2.99-0.593-4.085l-29.902-31.246
						c5.049-20.176,6.634-40.725,5.019-60.87l34.657-25.919c1.215-0.908,1.719-2.488,1.256-3.932L1035.787,1065.943z"/>
					<path style="opacity:0.56;fill:#FFFFFF;" d="M865.796,1194.716c-19.028,21.58-52.063,23.66-73.647,4.631
						c-10.456-9.216-16.695-21.954-17.569-35.864c-0.876-13.907,3.716-27.327,12.938-37.781
						c19.028-21.581,52.064-23.66,73.647-4.631c19.634,17.311,23.125,46.216,9.266,67.543
						C869.057,1190.728,867.511,1192.77,865.796,1194.716z M786.729,1162.72c0.671,10.666,5.454,20.43,13.471,27.499
						c16.546,14.587,41.878,12.995,56.466-3.552c14.598-16.547,12.995-41.878-3.552-56.468
						c-16.546-14.586-41.878-12.995-56.466,3.552c-1.323,1.501-2.518,3.079-3.589,4.726
						C788.411,1145.629,786.185,1154.051,786.729,1162.72z"/>
					<path style="opacity:0.56;fill:#FFFFFF;" d="M933.042,1230.573c2.38-3.663,4.59-7.467,6.617-11.404l0,0
						c0.638-1.239,1.256-2.489,1.854-3.748c2.947-6.21,5.396-12.644,7.308-19.204c0.026-0.089,0.052-0.179,0.079-0.268
						c0.073-0.254,0.146-0.508,0.216-0.763c0.141-0.495,0.276-0.992,0.41-1.488c0.352-1.305-0.201-2.641-1.276-3.342
						c-0.262-0.17-0.555-0.302-0.872-0.388c-1.622-0.437-3.288,0.528-3.728,2.148c-2.248,8.351-5.412,16.515-9.404,24.266
						c-19.812,38.51-57.385,62.036-97.61,65.754c-22.373,2.071-45.567-1.99-66.983-13.014c-3.756-1.932-7.387-4.04-10.88-6.311
						c-23.511-15.282-40.906-37.996-49.577-65.061c-9.962-31.088-7.221-64.195,7.717-93.219
						c30.858-59.942,104.677-83.578,164.593-52.741c3.694,1.901,7.279,3.983,10.739,6.233c14.997,9.749,27.694,22.671,37.134,37.884
						c0.244,0.393,0.562,0.711,0.927,0.946c0.957,0.622,2.228,0.677,3.263,0.034c1.426-0.891,1.872-2.76,0.98-4.192
						c-9.911-15.971-23.241-29.54-38.985-39.775c-3.632-2.362-7.394-4.546-11.271-6.543
						c-62.906-32.377-140.427-7.518-172.792,55.365c-15.683,30.472-18.559,65.226-8.101,97.862
						c9.102,28.413,27.365,52.258,52.046,68.302c3.668,2.384,7.479,4.596,11.42,6.625c30.474,15.683,65.229,18.561,97.864,8.104
						C893.15,1273.533,916.998,1255.263,933.042,1230.573z"/>
				</g>
			</g>
			<g>
				<g style="opacity:0.3;">
					
						<linearGradient id="SVGID_00000150102367661212097710000018039326480110876605_" gradientUnits="userSpaceOnUse" x1="-1421.392" y1="2306.5383" x2="-1409.0231" y2="2306.5383" gradientTransform="matrix(-0.5449 0.8385 0.8385 0.5449 -1381.6563 749.8729)">
						<stop  offset="0" style="stop-color:#B37CFF"/>
						<stop  offset="1" style="stop-color:#F895E7"/>
					</linearGradient>
					<path style="fill:url(#SVGID_00000150102367661212097710000018039326480110876605_);" d="M1331.421,826.954
						c1.108-1.704,1.016-3.997-0.376-5.619c-2.597-3.028-5.321-6.019-8.097-8.888c-1.804-1.864-4.776-1.913-6.644-0.109
						c-1.875,1.8-1.913,4.779-0.109,6.644c2.645,2.734,5.242,5.584,7.721,8.473c1.687,1.969,4.653,2.195,6.626,0.507
						C1330.889,827.662,1331.182,827.321,1331.421,826.954z"/>
					
						<linearGradient id="SVGID_00000082344136685599676440000000112749482920439949_" gradientUnits="userSpaceOnUse" x1="-1426.3993" y1="2167.5837" x2="-1183.9788" y2="2167.5837" gradientTransform="matrix(-0.5449 0.8385 0.8385 0.5449 -1381.6563 749.8729)">
						<stop  offset="0" style="stop-color:#B37CFF"/>
						<stop  offset="1" style="stop-color:#F895E7"/>
					</linearGradient>
					<path style="fill:url(#SVGID_00000082344136685599676440000000112749482920439949_);" d="M1305.186,802.187
						c-1.629,2.019-4.585,2.34-6.607,0.711c-5.102-4.106-10.474-8-15.965-11.568c-1.158-0.753-2.329-1.494-3.511-2.227
						c-2.202-1.368-2.882-4.265-1.514-6.47c1.376-2.034,4.265-2.882,6.473-1.515c1.236,0.768,2.461,1.544,3.673,2.332
						c5.756,3.74,11.389,7.822,16.738,12.131c1.894,1.523,2.293,4.218,0.996,6.215
						C1305.381,801.928,1305.286,802.057,1305.186,802.187z M1258.096,777.78c-7.207-3.335-14.685-6.254-22.225-8.672
						c-2.472-0.794-3.831-3.436-3.039-5.909c0.792-2.457,3.437-3.833,5.909-3.039c7.903,2.534,15.743,5.593,23.299,9.091
						c2.356,1.09,3.381,3.883,2.293,6.24c-0.096,0.206-0.208,0.404-0.329,0.59C1262.752,778.01,1260.242,778.773,1258.096,777.78z
						 M1212.736,763.252c-7.792-1.465-15.758-2.455-23.681-2.945c-2.588-0.16-4.559-2.391-4.399-4.979
						c0.162-2.598,2.385-4.563,4.979-4.402c8.308,0.512,16.666,1.554,24.836,3.088c2.55,0.48,4.232,2.936,3.752,5.486
						c-0.119,0.621-0.353,1.191-0.678,1.691C1216.538,762.74,1214.663,763.612,1212.736,763.252z M1165.192,760.312
						c-7.926,0.491-15.896,1.48-23.675,2.94c-2.554,0.477-5.008-1.203-5.485-3.753c-0.475-2.544,1.2-5.004,3.75-5.484
						c8.163-1.53,16.514-2.566,24.828-3.082c2.59-0.161,4.821,1.811,4.982,4.401c0.061,1.044-0.219,2.03-0.749,2.846
						C1168.06,759.385,1166.737,760.216,1165.192,760.312z M1118.37,769.069c-7.565,2.403-15.049,5.297-22.253,8.6
						c-2.356,1.082-5.146,0.046-6.229-2.313c-1.083-2.359-0.052-5.151,2.313-6.229c7.547-3.463,15.395-6.495,23.322-9.017
						c2.474-0.784,5.116,0.583,5.901,3.055c0.444,1.397,0.201,2.848-0.539,3.987C1120.314,768.031,1119.447,768.725,1118.37,769.069
						z M1075.094,788.926c-6.746,4.167-13.294,8.794-19.463,13.757c-2.02,1.626-4.98,1.306-6.605-0.716
						c-1.625-2.022-1.307-4.97,0.715-6.608c6.468-5.204,13.339-10.059,20.415-14.43c2.209-1.361,5.103-0.679,6.466,1.528
						c0.986,1.598,0.901,3.557-0.058,5.033C1076.198,788.053,1075.706,788.549,1075.094,788.926z M1038.003,818.751
						c-5.5,5.677-10.717,11.776-15.503,18.13c-1.564,2.07-4.509,2.484-6.581,0.922c-2.073-1.56-2.457-4.48-0.926-6.583
						c5.022-6.658,10.491-13.053,16.259-19.008c1.807-1.863,4.782-1.911,6.646-0.105c1.639,1.588,1.872,4.084,0.672,5.93
						C1038.408,818.289,1038.22,818.528,1038.003,818.751z M992.549,880.647c-2.391-1.012-3.506-3.767-2.494-6.158
						c2.8-6.616,6.012-13.192,9.533-19.529c0.53-0.966,1.072-1.919,1.62-2.871c1.226-2.273,4.172-3.018,6.421-1.713
						c2.247,1.299,3.013,4.171,1.716,6.421c-0.518,0.89-1.025,1.788-1.531,2.71c-3.372,6.064-6.435,12.337-9.107,18.645
						c-0.109,0.26-0.241,0.506-0.389,0.733C997.099,880.761,994.678,881.549,992.549,880.647z"/>
				</g>
				<g style="opacity:0.3;">
					
						<linearGradient id="SVGID_00000147942958410566303190000000994058936747532962_" gradientUnits="userSpaceOnUse" x1="-1318.2114" y1="2399.978" x2="-1041.5262" y2="2399.978" gradientTransform="matrix(-0.5449 0.8385 0.8385 0.5449 -1381.6563 749.8729)">
						<stop  offset="0" style="stop-color:#B37CFF"/>
						<stop  offset="1" style="stop-color:#F895E7"/>
					</linearGradient>
					<path style="fill:url(#SVGID_00000147942958410566303190000000994058936747532962_);" d="M1345.605,1066.464
						c-4.551,6.809-9.559,13.396-14.879,19.587c-1.693,1.965-4.658,2.191-6.628,0.498c-1.97-1.693-2.161-4.658-0.498-6.628
						c5.076-5.901,9.851-12.186,14.192-18.682c1.441-2.158,4.361-2.737,6.517-1.295c2.14,1.431,2.729,4.315,1.331,6.466
						C1345.629,1066.427,1345.616,1066.446,1345.605,1066.464z M1351.712,1047.281c-2.313-1.173-3.239-4.001-2.065-6.314
						c3.529-6.963,6.673-14.209,9.341-21.541c0.889-2.421,3.584-3.696,6.025-2.804c2.439,0.887,3.692,3.581,2.807,6.021
						c-2.798,7.682-6.091,15.277-9.792,22.572c-0.078,0.154-0.162,0.3-0.254,0.442
						C1356.484,1047.643,1353.877,1048.379,1351.712,1047.281z M1313.562,1103.696c-6.065,5.51-12.517,10.697-19.178,15.414
						c-2.118,1.499-5.054,0.998-6.551-1.119c-1.503-2.118-1-5.039,1.115-6.551c6.356-4.5,12.509-9.446,18.298-14.7
						c1.922-1.745,4.893-1.601,6.635,0.317c1.467,1.616,1.6,3.973,0.464,5.719
						C1314.131,1103.108,1313.87,1103.417,1313.562,1103.696z M1369.173,1002.557c-2.528-0.582-4.106-3.106-3.524-5.634
						c1.752-7.606,3.053-15.394,3.865-23.152c0.274-2.577,2.586-4.451,5.16-4.185c2.582,0.271,4.457,2.582,4.186,5.163
						c-0.849,8.136-2.213,16.307-4.052,24.283c-0.129,0.551-0.348,1.057-0.639,1.505
						C1373.123,1002.146,1371.149,1003.012,1369.173,1002.557z M1273.485,1132.071c-7.195,3.881-14.704,7.36-22.32,10.346
						c-2.416,0.947-5.144-0.245-6.091-2.661c-0.948-2.416,0.24-5.144,2.661-6.091c7.266-2.844,14.426-6.164,21.287-9.868
						c2.283-1.231,5.134-0.38,6.367,1.908c0.845,1.564,0.708,3.399-0.198,4.794
						C1274.778,1131.135,1274.203,1131.683,1273.485,1132.071z M1227.765,1150.005c-7.931,2.048-16.058,3.632-24.152,4.71
						c-2.571,0.343-4.933-1.463-5.275-4.035c-0.344-2.569,1.462-4.936,4.038-5.279c7.717-1.029,15.47-2.542,23.039-4.496
						c2.512-0.649,5.076,0.863,5.725,3.375c0.342,1.327,0.083,2.669-0.611,3.737
						C1229.911,1148.968,1228.948,1149.7,1227.765,1150.005z M1179.062,1156.478c-8.197,0.091-16.47-0.322-24.586-1.223
						c-2.582-0.288-4.438-2.61-4.151-5.19c0.285-2.578,2.613-4.434,5.187-4.151c7.741,0.863,15.629,1.255,23.443,1.164
						c2.596-0.029,4.724,2.052,4.751,4.647c0.014,0.964-0.267,1.859-0.755,2.609
						C1182.123,1155.607,1180.695,1156.458,1179.062,1156.478z"/>
					
						<linearGradient id="SVGID_00000150080247625991102670000009143733631293992080_" gradientUnits="userSpaceOnUse" x1="-1348.6272" y1="2417.2844" x2="-1329.7046" y2="2417.2844" gradientTransform="matrix(-0.5449 0.8385 0.8385 0.5449 -1381.6563 749.8729)">
						<stop  offset="0" style="stop-color:#B37CFF"/>
						<stop  offset="1" style="stop-color:#F895E7"/>
					</linearGradient>
					<path style="fill:url(#SVGID_00000150080247625991102670000009143733631293992080_);" d="M1379.171,952.578
						c0.494-0.76,0.773-1.67,0.755-2.645c-0.074-4.021-0.269-8.058-0.575-12c-0.202-2.586-2.463-4.523-5.05-4.322
						c-2.581,0.208-4.517,2.463-4.322,5.051c0.294,3.759,0.478,7.61,0.551,11.448c0.048,2.595,2.193,4.659,4.786,4.61
						C1376.935,954.688,1378.349,953.842,1379.171,952.578z"/>
				</g>
				<g>
					
						<linearGradient id="SVGID_00000055700159245413014550000011901783327335063727_" gradientUnits="userSpaceOnUse" x1="693.6617" y1="2018.8887" x2="1360.2749" y2="544.2611">
						<stop  offset="0" style="stop-color:#B37CFF"/>
						<stop  offset="1" style="stop-color:#F895E7"/>
					</linearGradient>
					<path style="fill:url(#SVGID_00000055700159245413014550000011901783327335063727_);" d="M1315.544,889.698
						c-0.31-0.967-1.199-1.63-2.214-1.653l-28.952-0.636c-6.955-11.598-15.81-22.17-26.405-31.194l4.131-28.644
						c0.145-1.005-0.364-1.99-1.266-2.455l-30.885-15.895c-0.902-0.465-2.001-0.306-2.734,0.396l-20.909,20.01
						c-13.501-3.379-27.251-4.44-40.732-3.359l-17.344-23.19c-0.608-0.813-1.665-1.15-2.631-0.841l-33.079,10.599
						c-0.967,0.309-1.631,1.199-1.653,2.214l-0.636,28.951c-11.599,6.955-22.172,15.81-31.195,26.406l-28.644-4.132
						c-1.005-0.145-1.991,0.363-2.455,1.266l-15.896,30.886c-0.465,0.903-0.305,2,0.397,2.734l20.01,20.909
						c-3.379,13.501-4.44,27.251-3.358,40.732l-23.191,17.344c-0.813,0.608-1.151,1.665-0.841,2.631l10.599,33.08
						c0.31,0.966,1.199,1.63,2.213,1.652l28.953,0.636c6.954,11.599,15.809,22.171,26.405,31.194l-4.131,28.644
						c-0.146,1.004,0.363,1.99,1.266,2.455l30.886,15.896c0.903,0.464,2,0.305,2.734-0.397l20.908-20.01
						c13.501,3.379,27.251,4.44,40.732,3.359l17.344,23.19c0.608,0.813,1.664,1.15,2.631,0.841l33.079-10.599
						c0.967-0.31,1.63-1.199,1.653-2.214l0.636-28.952c11.599-6.955,22.171-15.809,31.195-26.406l28.644,4.132
						c1.005,0.145,1.99-0.364,2.455-1.266l15.895-30.886c0.464-0.903,0.305-2-0.397-2.734l-20.009-20.908
						c3.379-13.501,4.439-27.251,3.358-40.732l23.191-17.344c0.813-0.608,1.15-1.665,0.841-2.631L1315.544,889.698z"/>
					<path style="opacity:0.56;fill:#FFFFFF;" d="M1202.265,976.279c-6.278,7.125-14.955,11.375-24.431,11.97
						c-9.473,0.598-18.613-2.532-25.735-8.813c-14.699-12.959-16.108-35.425-3.156-50.168c12.966-14.698,35.468-16.112,50.163-3.153
						c7.122,6.278,11.373,14.954,11.97,24.428c0.484,7.702-1.494,15.184-5.625,21.54
						C1204.502,973.544,1203.437,974.948,1202.265,976.279z M1158.311,972.387c5.24,4.62,11.963,6.922,18.935,6.484
						c6.967-0.439,13.35-3.567,17.969-8.804l0,0c4.612-5.245,6.919-11.962,6.481-18.934c-0.436-6.967-3.567-13.35-8.802-17.967
						c-10.813-9.534-27.365-8.493-36.902,2.317c-0.859,0.977-1.633,1.998-2.322,3.058
						C1146.726,949.229,1148.476,963.716,1158.311,972.387z"/>
					<path style="opacity:0.56;fill:#FFFFFF;" d="M1249.07,1001.234c1.62-2.493,3.126-5.088,4.517-7.785
						c2.759-5.357,4.976-11,6.592-16.788c0.071-0.26,0.141-0.521,0.212-0.782c0.544-2.016-0.31-4.079-1.971-5.161
						c-0.404-0.262-0.857-0.467-1.346-0.598c-2.505-0.675-5.074,0.818-5.756,3.316c-1.457,5.418-3.507,10.702-6.086,15.708
						l-0.001,0.002c-0.141,0.275-0.286,0.549-0.43,0.821c-6.213,11.792-15.129,21.589-25.935,28.786
						c-5.866,3.907-12.295,7.046-19.159,9.314c-0.056,0.019-0.111,0.037-0.167,0.056c-0.173,0.055-0.341,0.112-0.512,0.165
						c-20.126,6.447-41.558,4.674-60.348-4.997c-2.433-1.25-4.781-2.614-7.043-4.084c-15.22-9.893-26.481-24.599-32.097-42.121
						c-6.448-20.126-4.67-41.556,5-60.344c9.671-18.774,26.081-32.69,46.204-39.142c20.125-6.447,41.558-4.674,60.348,4.997
						c2.392,1.229,4.712,2.578,6.951,4.033c9.71,6.313,17.929,14.677,24.039,24.525c0.377,0.607,0.868,1.098,1.431,1.461
						c1.478,0.96,3.441,1.046,5.038,0.054c2.201-1.374,2.885-4.263,1.514-6.473c-6.838-11.019-16.034-20.379-26.893-27.442
						c-2.509-1.63-5.102-3.138-7.776-4.514c-21.026-10.82-45.002-12.805-67.52-5.589c-22.513,7.216-40.88,22.747-51.691,43.787
						c-10.821,21.022-12.808,44.998-5.589,67.516c6.279,19.603,18.878,36.054,35.907,47.122c2.528,1.643,5.158,3.171,7.876,4.571
						C1175.079,1052.591,1224.644,1038.821,1249.07,1001.234z"/>
				</g>
			</g>
		</g>
		<g>
			
				<linearGradient id="SVGID_00000062175300592981984230000009506245568407131785_" gradientUnits="userSpaceOnUse" x1="1745.8807" y1="2245.5789" x2="4400.8237" y2="-2197.5261">
				<stop  offset="0" style="stop-color:#FDF53F"/>
				<stop  offset="1" style="stop-color:#D93C65"/>
			</linearGradient>
			<polygon style="fill:url(#SVGID_00000062175300592981984230000009506245568407131785_);" points="2283.073,1320.214 
				2146.429,1459.992 2310.338,1416.208 			"/>
			
				<linearGradient id="SVGID_00000166643157309613357920000014414846065812431746_" gradientUnits="userSpaceOnUse" x1="2011.1726" y1="2366.0518" x2="4617.1182" y2="-1995.0549">
				<stop  offset="0" style="stop-color:#FDF53F"/>
				<stop  offset="1" style="stop-color:#D93C65"/>
			</linearGradient>
			<path style="fill:url(#SVGID_00000166643157309613357920000014414846065812431746_);" d="M3096.143,1378.071l-776.434,37.682
				c-19.94,0.968-36.637-14.938-36.637-34.902v-319.426c0-34.719,27.575-63.161,62.278-64.235l699.767-21.654
				c52.111,0,94.354,42.244,94.354,94.355v262.697C3139.472,1356.879,3120.406,1376.894,3096.143,1378.071z"/>
			<path style="opacity:0.85;fill:#FFFFFF;" d="M2342.931,1402.925c-12.374,0-24.037-4.663-33.061-13.27
				c-9.591-9.147-14.873-21.485-14.873-34.739v-287.897c0-33.929,27.204-61.327,61.931-62.375l677.529-20.46
				c51.352,0,93.09,40.749,93.09,90.835v248.209c0,23.884-19.132,43.499-43.556,44.656l-738.718,34.985
				C2344.492,1402.905,2343.71,1402.925,2342.931,1402.925z M3034.509,987.55l-677.478,20.46
				c-32.898,0.993-58.667,26.913-58.667,59.009v287.897c0,12.325,4.911,23.797,13.83,32.303
				c8.917,8.506,20.618,12.857,32.923,12.287l738.718-34.985l0.079,1.682l-0.079-1.682c22.625-1.072,40.347-19.209,40.347-41.293
				v-248.209C3124.182,1026.788,3083.954,987.55,3034.509,987.55z"/>
			<path style="opacity:0.94;fill:#FFFFFF;" d="M3032.246,1045.788l-620.848,23.236c-6.096,0.228-10.896,4.269-10.694,9.003
				l0.233,5.457c0.2,4.685,5.227,8.285,11.26,8.064l620.872-22.672c6.102-0.223,10.909-4.266,10.706-9.004l-0.257-6.021
				C3043.317,1049.163,3038.283,1045.562,3032.246,1045.788z"/>
			<path style="opacity:0.94;fill:#FFFFFF;" d="M2976.687,1202.965l-620.853,23.118c-6.097,0.227-10.89,4.405-10.681,9.309
				l0.242,5.653c0.208,4.852,5.24,8.589,11.273,8.37l620.878-22.533c6.102-0.221,10.903-4.401,10.693-9.309l-0.267-6.237
				C2987.765,1206.478,2982.725,1202.741,2976.687,1202.965z"/>
			<path style="opacity:0.94;fill:#FFFFFF;" d="M3049.22,1268.716l-692.116,26.132c-6.796,0.257-12.158,4.498-11.947,9.45
				l0.244,5.708c0.209,4.9,5.802,8.651,12.527,8.403l692.142-25.541c6.802-0.251,12.173-4.495,11.961-9.45l-0.27-6.298
				C3061.552,1272.215,3055.95,1268.462,3049.22,1268.716z"/>
			<path style="opacity:0.94;fill:#FFFFFF;" d="M2691.852,1138.455l-338.389,9.864c-3.323,0.097-5.807,4.658-5.536,10.162
				l0.313,6.344c0.269,5.446,3.138,9.766,6.426,9.677l338.421-9.208c3.326-0.09,5.815-4.653,5.543-10.162l-0.346-7
				C2698.015,1142.681,2695.142,1138.359,2691.852,1138.455z"/>
			<path style="opacity:0.94;fill:#FFFFFF;" d="M3064.71,1126.759l-319.844,9.169c-3.141,0.09-5.475,4.645-5.202,10.149l0.316,6.344
				c0.271,5.446,2.996,9.771,6.104,9.689l319.876-8.513c3.144-0.084,5.482-4.641,5.208-10.149l-0.348-7
				C3070.55,1130.997,3067.821,1126.67,3064.71,1126.759z"/>
		</g>
		<g>
			
				<linearGradient id="SVGID_00000147941997754122300110000014594820856041383582_" gradientUnits="userSpaceOnUse" x1="7783.8364" y1="3089.8191" x2="7165.8594" y2="3762.0051" gradientTransform="matrix(1 0 0 1 -6484.3511 0)">
				<stop  offset="0" style="stop-color:#2B3582"/>
				<stop  offset="1" style="stop-color:#150E42"/>
			</linearGradient>
			<path style="fill:url(#SVGID_00000147941997754122300110000014594820856041383582_);" d="M1104.142,3139.893
				c0,0-6.4,36.23-9.538,72.096c-1.226,14.016,9.58,26.186,23.639,26.773c47.761,1.989,149.925,5.857,186.584,4.221
				c5.511-0.246,9.115-5.888,7.075-11.014l0,0c-1.71-4.295-5.006-7.768-9.206-9.698l-168.755-77.56L1104.142,3139.893z"/>
			
				<linearGradient id="SVGID_00000130618030246448025030000013726845611140058045_" gradientUnits="userSpaceOnUse" x1="7583.25" y1="3139.7434" x2="7638.1416" y2="3139.7434" gradientTransform="matrix(1 0 0 1 -6484.3511 0)">
				<stop  offset="0" style="stop-color:#F9B776"/>
				<stop  offset="1" style="stop-color:#F47960"/>
			</linearGradient>
			<path style="fill:url(#SVGID_00000130618030246448025030000013726845611140058045_);" d="M1098.899,3118.605l5.142,43.337
				c0,0,29.561,13.762,49.749-1.734l-12.242-48.296L1098.899,3118.605z"/>
			
				<linearGradient id="SVGID_00000173135750209285162460000009620136015139254701_" gradientUnits="userSpaceOnUse" x1="7832.4951" y1="2329.6489" x2="7306.6563" y2="3042.356" gradientTransform="matrix(1 0 0 1 -6484.3511 0)">
				<stop  offset="0" style="stop-color:#2B3582"/>
				<stop  offset="1" style="stop-color:#150E42"/>
			</linearGradient>
			<path style="fill:url(#SVGID_00000173135750209285162460000009620136015139254701_);" d="M1102.763,2303.854
				c-2.221,11.317-11.922,564.756,47.237,812.771c0.965,4.047-1.087,8.218-4.938,9.792c-9.073,3.707-26.862,9.075-48.18,9.792
				c-6.602,0.222-12.521-4.069-14.383-10.406c-16.91-57.544-97.941-345.852-108.512-621.264c-11.811-307.746,0-10.479,0-10.479
				l6.928-190.23L1102.763,2303.854z"/>
			
				<linearGradient id="SVGID_00000084512709286056531050000010148360090197127100_" gradientUnits="userSpaceOnUse" x1="7645.2031" y1="2962.3662" x2="7027.2261" y2="3634.5525" gradientTransform="matrix(1 0 0 1 -6484.3511 0)">
				<stop  offset="0" style="stop-color:#2B3582"/>
				<stop  offset="1" style="stop-color:#150E42"/>
			</linearGradient>
			<path style="fill:url(#SVGID_00000084512709286056531050000010148360090197127100_);" d="M910.017,3158.794
				c0,0-10.187,18.291-20.05,66.894c-1.781,8.778,4.352,17.179,13.266,18.054c15.771,1.551,40.049,3.545,59.497,3.411
				c8.965-0.062,15.962-7.868,14.882-16.768c-2.154-17.74-8.865-46.847-29.597-69.532L910.017,3158.794z"/>
			
				<linearGradient id="SVGID_00000146498553178979723240000011398705239971259563_" gradientUnits="userSpaceOnUse" x1="7385.4204" y1="3136.9287" x2="7432.8145" y2="3136.9287" gradientTransform="matrix(1 0 0 1 -6484.3511 0)">
				<stop  offset="0" style="stop-color:#F9B776"/>
				<stop  offset="1" style="stop-color:#F47960"/>
			</linearGradient>
			<path style="fill:url(#SVGID_00000146498553178979723240000011398705239971259563_);" d="M901.069,3103.053l12.015,65.537
				c0,0,11.88,8.837,35.379,2.431l-5.734-70.514L901.069,3103.053z"/>
			
				<linearGradient id="SVGID_00000149365713291965367270000015335031762166342290_" gradientUnits="userSpaceOnUse" x1="7738.7783" y1="2260.5037" x2="7212.9395" y2="2973.2104" gradientTransform="matrix(1 0 0 1 -6484.3511 0)">
				<stop  offset="0" style="stop-color:#2B3582"/>
				<stop  offset="1" style="stop-color:#150E42"/>
			</linearGradient>
			<path style="fill:url(#SVGID_00000149365713291965367270000015335031762166342290_);" d="M868.612,2320.837
				c-48.384,291.999,10.495,721.7,30.353,805.802c1.216,5.149,5.371,9.094,10.59,9.96c8.864,1.469,23.457,2.668,37.844-1.51
				c4.957-1.439,8.439-5.91,8.641-11.069c2.664-67.995-2.131-485.415,42.952-650.382c2.284-8.36,7.39-15.651,14.454-20.673
				l87.502-62.207l6.708-100.551L868.612,2320.837z"/>
			<g>
				
					<linearGradient id="SVGID_00000156553383519211546640000001891014980892020414_" gradientUnits="userSpaceOnUse" x1="1068.4948" y1="1943.3823" x2="1906.8099" y2="499.0551">
					<stop  offset="0" style="stop-color:#FDF53F"/>
					<stop  offset="1" style="stop-color:#D93C65"/>
				</linearGradient>
				<path style="fill:url(#SVGID_00000156553383519211546640000001891014980892020414_);" d="M1176.915,1767.555
					c-144.997-2.395-304.984,38.072-304.984,38.072c-43.221,252.191-7.558,543.075-7.558,543.075
					c112.253,29.437,238.88-17.998,238.88-17.998c18.657-105.41,105.707-402.067,105.707-402.067
					c70.845-8.792,129.206-29.232,177.267-56.256c-36.66-42.494-53.942-96.565-61.448-128.528
					C1273.512,1759.784,1221.637,1768.294,1176.915,1767.555z"/>
				
					<linearGradient id="SVGID_00000021107261247049481780000006447443432636049538_" gradientUnits="userSpaceOnUse" x1="-3071.0356" y1="1380.9535" x2="-2974.1865" y2="1657.6663" gradientTransform="matrix(-1 0 0 1 -1509.069 0)">
					<stop  offset="0" style="stop-color:#F9B776"/>
					<stop  offset="1" style="stop-color:#F47960"/>
				</linearGradient>
				<path style="fill:url(#SVGID_00000021107261247049481780000006447443432636049538_);" d="M1605.21,1553.982
					c-14.244-17.204-32.271-9.065-32.271-9.065c-21.338,90.132-133.218,163.213-248.16,198.935
					c7.506,31.963,24.789,86.034,61.448,128.528C1576.983,1765.125,1605.21,1553.982,1605.21,1553.982z"/>
			</g>
			<g>
				
					<linearGradient id="SVGID_00000183242233169403271700000006036117285505351575_" gradientUnits="userSpaceOnUse" x1="-3153.814" y1="1409.9259" x2="-3056.9651" y2="1686.6376" gradientTransform="matrix(-1 0 0 1 -1509.069 0)">
					<stop  offset="0" style="stop-color:#F9B776"/>
					<stop  offset="1" style="stop-color:#F47960"/>
				</linearGradient>
				<path style="fill:url(#SVGID_00000183242233169403271700000006036117285505351575_);" d="M1601.752,1558.357
					c1.491,4.739-15.768,11.953-25.93-7.425c-0.356-9.287-6.003-49.076-0.454-56.641c29.556-40.296,86.861-90.809,86.861-90.809
					c9.685,9.556,1.706,18.944,1.706,18.944l-27.799,28.959c5.815,10.507,12.907,19.377,16.231,32.086
					c2.518,9.625,0.978,19.91-3.884,28.671c-4.88,8.791-11.537,20.219-17.831,29.162
					C1618.739,1558.23,1601.752,1558.357,1601.752,1558.357z"/>
				
					<linearGradient id="SVGID_00000161630709230641991200000001234579407500093855_" gradientUnits="userSpaceOnUse" x1="-3079.4128" y1="1586.7166" x2="-3152.3647" y2="1439.5547" gradientTransform="matrix(-1 0 0 1 -1509.069 0)">
					<stop  offset="0" style="stop-color:#F9B776"/>
					<stop  offset="1" style="stop-color:#F47960"/>
				</linearGradient>
				<path style="fill:url(#SVGID_00000161630709230641991200000001234579407500093855_);" d="M1623.977,1470.174l-25.333,21.475
					l-7.953,21.381l22.587,25.057c0,0,7.594-42.424,13.238-51.606C1632.16,1477.299,1629.233,1472.859,1623.977,1470.174z"/>
			</g>
			
				<linearGradient id="SVGID_00000149374273453110213000000013607541501541726357_" gradientUnits="userSpaceOnUse" x1="894.1226" y1="1842.1735" x2="1732.4379" y2="397.8461">
				<stop  offset="0" style="stop-color:#FDF53F"/>
				<stop  offset="1" style="stop-color:#D93C65"/>
			</linearGradient>
			<path style="fill:url(#SVGID_00000149374273453110213000000013607541501541726357_);" d="M927.545,1946.026l-55.615-140.4
				c0,0-135.435,92.022-157.708,208.697c25.59,1.884,72.157,8.541,117.737,31.556
				C841.975,1990.786,927.545,1946.026,927.545,1946.026z"/>
			
				<linearGradient id="SVGID_00000109730032524213047520000004946863182459081647_" gradientUnits="userSpaceOnUse" x1="7195.4858" y1="2104.9109" x2="7550.375" y2="2104.9109" gradientTransform="matrix(1 0 0 1 -6484.3511 0)">
				<stop  offset="0" style="stop-color:#F9B776"/>
				<stop  offset="1" style="stop-color:#F47960"/>
			</linearGradient>
			<path style="fill:url(#SVGID_00000109730032524213047520000004946863182459081647_);" d="M1045.9,2078.138
				c0,0-152.059,85.937-203.367,12.557c-10.653-15.237-13.199-30.38-10.575-44.816c-45.58-23.015-92.146-29.672-117.737-31.556
				c-6.716,35.174-3.165,72.583,17.504,110.392c89.873,164.402,334.298-9.085,334.298-9.085L1045.9,2078.138z"/>
			<g>
				
					<linearGradient id="SVGID_00000079472594016076707310000009575052903757511073_" gradientUnits="userSpaceOnUse" x1="1336.2931" y1="1679.9607" x2="1153.4761" y2="2178.5527">
					<stop  offset="0" style="stop-color:#2B3582"/>
					<stop  offset="1" style="stop-color:#150E42"/>
				</linearGradient>
				<path style="fill:url(#SVGID_00000079472594016076707310000009575052903757511073_);" d="M1027.63,2186.856l82.989-289.814
					c0.941-3.29,3.748-5.689,7.147-6.086c15.036-1.753,58.604-6.679,108.909-10.934c60.594-5.125,130.961-9.278,173.009-5.745
					c5.978,0.502,9.591,6.825,6.932,12.203c-23.912,48.376-122.269,245.159-171.523,309.622c-1.633,2.136-4.156,3.384-6.843,3.359
					l-192.547-1.792C1030.101,2197.618,1026.088,2192.243,1027.63,2186.856z"/>
				
					<linearGradient id="SVGID_00000159454993722491833970000005545971231857671835_" gradientUnits="userSpaceOnUse" x1="4982.9702" y1="9119.9121" x2="4805.6924" y2="9585.2656" gradientTransform="matrix(1 0 0 1 -6484.3511 0)">
					<stop  offset="0" style="stop-color:#53D8FF"/>
					<stop  offset="1" style="stop-color:#3840F7"/>
				</linearGradient>
				<path style="fill:url(#SVGID_00000159454993722491833970000005545971231857671835_);" d="M1235.284,1854.897l60.168-10.026
					c3.205-0.533,5.829,2.528,4.811,5.613l-5.956,18.049c-0.519,1.571-1.889,2.708-3.529,2.927l-57.9,7.735
					c-2.995,0.399-5.465-2.322-4.776-5.265l3.687-15.758C1232.185,1856.475,1233.564,1855.184,1235.284,1854.897z"/>
				
					<linearGradient id="SVGID_00000105411967930344317170000016821073675586256823_" gradientUnits="userSpaceOnUse" x1="4987.7515" y1="9121.7324" x2="4810.4741" y2="9587.0859" gradientTransform="matrix(1 0 0 1 -6484.3511 0)">
					<stop  offset="0" style="stop-color:#53D8FF"/>
					<stop  offset="1" style="stop-color:#3840F7"/>
				</linearGradient>
				<path style="fill:url(#SVGID_00000105411967930344317170000016821073675586256823_);" d="M1190.231,1905.834l4.957-25.819
					c0.497-2.59,2.635-4.546,5.258-4.813l121.526-12.332c4.09-0.415,7.366,3.333,6.406,7.331l-7.727,32.173
					c-0.618,2.574-2.858,4.433-5.503,4.566l-118.755,5.979C1192.527,1913.114,1189.502,1909.635,1190.231,1905.834z"/>
				
					<linearGradient id="SVGID_00000119087972575273805760000012533251795368632449_" gradientUnits="userSpaceOnUse" x1="7524.0259" y1="2067.7012" x2="7634.5884" y2="2067.7012" gradientTransform="matrix(1 0 0 1 -6484.3511 0)">
					<stop  offset="0" style="stop-color:#F9B776"/>
					<stop  offset="1" style="stop-color:#F47960"/>
				</linearGradient>
				<path style="fill:url(#SVGID_00000119087972575273805760000012533251795368632449_);" d="M1047.68,2116.837
					c0,0-11.56-47.536-6.898-64.4c4.664-16.865,13.699-38.548,43.814-33.73c30.116,4.818,65.641,17.505,65.641,17.505
					s-1.794,21.967-24.683,14.88l14.194,10.982c0,0-2.028,17.588-21.362,8.192l13.202,14.565c0,0-8.303,14.446-22.527,5.18
					C1094.837,2080.745,1088.018,2122.562,1047.68,2116.837z"/>
			</g>
			
				<linearGradient id="SVGID_00000045581486478371454060000006465661867091892906_" gradientUnits="userSpaceOnUse" x1="7467.9917" y1="1725.5131" x2="7608.3027" y2="1725.5131" gradientTransform="matrix(1 0 0 1 -6484.3511 0)">
				<stop  offset="0" style="stop-color:#F9B776"/>
				<stop  offset="1" style="stop-color:#F47960"/>
			</linearGradient>
			<path style="fill:url(#SVGID_00000045581486478371454060000006465661867091892906_);" d="M1030.045,1649.84l-46.136,133.422
				c-0.764,2.21,0.144,4.657,2.191,5.789c12.576,6.953,57.886,27.052,112.487-7.567c5.688-3.606,9.56-9.488,10.424-16.168
				l14.94-115.476H1030.045z"/>
			<g>
				
					<linearGradient id="SVGID_00000016764331505346021240000014445069356839310728_" gradientUnits="userSpaceOnUse" x1="252.0474" y1="3494.9868" x2="199.6145" y2="3322.0508" gradientTransform="matrix(0.746 -0.6659 0.6659 0.746 -1358.0157 -803.1727)">
					<stop  offset="0" style="stop-color:#F9B776"/>
					<stop  offset="1" style="stop-color:#F47960"/>
				</linearGradient>
				<path style="fill:url(#SVGID_00000016764331505346021240000014445069356839310728_);" d="M1130.429,1526.288
					c0,0,50.662,95.366,44.168,133.889c-6.494,38.522-69.282,35.757-124.109,4.47l-38.313-102.973L1130.429,1526.288z"/>
				
					<linearGradient id="SVGID_00000014607422822100360620000001904385960318153404_" gradientUnits="userSpaceOnUse" x1="204.7424" y1="3193.6714" x2="248.6022" y2="3443.8347" gradientTransform="matrix(0.746 -0.6659 0.6659 0.746 -1358.0157 -803.1727)">
					<stop  offset="0" style="stop-color:#2B3582"/>
					<stop  offset="1" style="stop-color:#150E42"/>
				</linearGradient>
				<path style="fill:url(#SVGID_00000014607422822100360620000001904385960318153404_);" d="M1052.912,1614.076
					c2.228-0.987,3.05-3.714,1.715-5.752c-4.059-6.201-11.668-18.851-14.095-29.926c0,0-9.107-5.834,23.181-13.561
					c32.288-7.729,80.437-19.724,90.558-47.207c9.868-26.795-16.058-94.181-57.421-40.489c-1.573,2.042-4.656,2.087-6.228,0.043
					c-6.781-8.825-24.608-27.143-49.357-16.038c-23.161,10.392-25.77,27.364-25.451,35.919c0.093,2.516-2.157,4.472-4.63,4.001
					c-11.71-2.233-39.811-4.151-52.927,24.675c-10.804,23.745-3.782,37.186,2.613,43.759c2.073,2.13,1.165,5.637-1.677,6.506
					c-7.695,2.356-17.633,8.882-16.639,26.912c1.376,24.927,29.245,22.73,37.179,21.595c1.301-0.186,2.611,0.26,3.491,1.234
					c6.803,7.53,37.457,39.499,70.633,43.352c2.873,0.333,5.099-2.503,4.159-5.238l-14.358-41.737
					c-0.667-1.938,0.261-4.064,2.134-4.895L1052.912,1614.076z"/>
				
					<linearGradient id="SVGID_00000051343803879342244470000011519098167265424805_" gradientUnits="userSpaceOnUse" x1="198.4484" y1="3494.1812" x2="151.2738" y2="3338.5884" gradientTransform="matrix(0.746 -0.6659 0.6659 0.746 -1358.0157 -803.1727)">
					<stop  offset="0" style="stop-color:#F9B776"/>
					<stop  offset="1" style="stop-color:#F47960"/>
				</linearGradient>
				<path style="fill:url(#SVGID_00000051343803879342244470000011519098167265424805_);" d="M1058.683,1620
					c0,0-36.071-24.749-38.707-3.907c-2.635,20.841,32.483,30.188,49.877,22.418L1058.683,1620z"/>
			</g>
		</g>
	</g>
</g>
</svg>
